<svg viewBox="0 0 494 449" fill="none" xmlns="http://www.w3.org/2000/svg">
<path d="M396.893 104.549C405.15 62.5229 400.533 30.6281 381.015 17.9534C374.51 13.7284 366.71 11.8796 357.931 12.2129C310.528 14.0125 234.042 79.2813 171.55 175.511C97.485 289.56 71.1645 403.86 112.802 430.9C132.566 443.735 164.061 434.637 199.641 409.282" stroke="white" stroke-width="1.9084" stroke-linecap="round"/>
<path d="M434.878 291.053C470.031 277.415 491.648 258.75 492.771 237.312C495.369 187.734 387.474 141.834 251.672 134.717C238.94 134.049 226.421 133.698 214.176 133.74C95.8011 134.138 3.40059 166.611 1.04588 211.541C-0.0754082 232.937 19.4172 253.683 52.8321 270.9" stroke="white" stroke-width="1.9084" stroke-linecap="round"/>
<path d="M213.321 30.6558C189.269 10.6999 166.711 -0.0164717 148.588 1.3428C143.763 1.70471 139.3 2.89389 135.153 5.00693C90.9173 27.546 105.049 144.115 166.786 265.282C228.524 386.448 314.429 466.386 358.664 443.847C401.205 422.171 389.723 313.549 333.87 197.495" stroke="white" stroke-width="1.9084" stroke-linecap="round"/>
<path d="M277.809 227.908C277.809 235.683 274.721 243.139 269.224 248.636C263.726 254.133 256.271 257.221 248.496 257.221C240.722 257.221 233.266 254.133 227.769 248.636C222.272 243.139 219.183 235.683 219.183 227.908C219.183 220.134 222.272 212.678 227.769 207.181C233.266 201.684 240.722 198.595 248.496 198.595C256.271 198.595 263.726 201.684 269.224 207.181C274.721 212.678 277.809 220.134 277.809 227.908Z" fill="white"/>
</svg>
