<svg viewBox="0 0 377 403" fill="none" xmlns="http://www.w3.org/2000/svg">
<path d="M223.831 35.978C236.441 46.0371 245.545 58.9054 253.201 72.9752C260.174 85.7871 265.441 99.2578 269.735 113.145C273.799 126.293 276.806 139.684 279.012 153.274C280.082 159.884 281.006 166.514 281.747 173.156C282.2 177.22 282.404 181.342 282.719 185.429C283.542 196.005 283.75 206.587 283.646 217.178C283.586 223.462 283.492 229.758 283.013 236.018C281.753 252.462 279.823 268.829 276.302 284.969C274.41 293.666 272.399 302.329 269.556 310.779" stroke="white" stroke-width="3" stroke-miterlimit="10" stroke-linecap="round" stroke-linejoin="round"/>
<path d="M62.4432 231.965C69.7273 239.519 77.2708 246.772 85.1863 253.669C98.0716 264.895 111.81 274.939 126.182 284.141C133.659 288.932 141.317 293.412 149.101 297.69C163.324 305.51 178.026 312.291 193.157 318.121C207.558 323.667 222.303 328.141 237.387 331.452C244.966 333.116 252.627 334.385 260.33 335.285C264.53 335.778 268.786 335.961 273.01 336.278C277.669 336.624 282.323 336.741 286.943 336.515C301.831 335.785 316.467 333.788 329.977 326.792C332.037 325.722 333.733 324.285 335.484 322.855" stroke="white" stroke-width="3" stroke-miterlimit="10" stroke-linecap="round" stroke-linejoin="round"/>
<path d="M239.023 91.6377C233.666 92.4364 228.469 93.9417 223.257 95.336C209.838 98.9269 196.78 103.578 183.929 108.832C175.947 112.097 168.077 115.647 160.414 119.559C137.608 131.2 115.939 144.71 95.8921 160.688C83.0256 170.945 70.8809 182.03 59.8388 194.258C49.5186 205.689 40.1831 217.89 32.6209 231.333C26.3011 242.563 21.2818 254.334 19.0443 267.15C18.1654 272.179 17.7421 277.21 18.0254 282.31" stroke="white" stroke-width="3" stroke-miterlimit="10" stroke-linecap="round" stroke-linejoin="round"/>
<path d="M123.922 88.5739C117.048 87.7547 110.191 86.8262 103.241 86.6453C99.9694 86.56 96.6875 86.2135 93.4089 86.3313C79.5423 86.8262 65.8702 88.3673 52.8483 93.6631C41.3198 98.353 31.614 105.275 25.0313 116.024C20.8927 122.781 18.7218 130.17 17.9692 138.118C16.8598 149.877 19.3567 160.989 23.195 171.905C25.5997 178.751 28.6956 185.315 32.4059 191.561" stroke="white" stroke-width="3" stroke-miterlimit="10" stroke-linecap="round" stroke-linejoin="round"/>
<path d="M325.517 220.312C332.351 212.111 338.51 203.448 343.857 194.229C350.726 182.38 356.251 169.982 358.644 156.358C360.574 145.365 360.4 134.535 356.353 124.005C352.083 112.879 344.361 104.668 334.25 98.6129C323.276 92.0422 311.147 89.0829 298.617 87.5776C291.964 86.7789 285.257 86.5365 278.55 86.7243" stroke="white" stroke-width="3" stroke-miterlimit="10" stroke-linecap="round" stroke-linejoin="round"/>
<path d="M111.841 321.831C113.505 327.007 115.582 332.025 117.794 336.981C121.762 345.875 126.29 354.468 131.691 362.598C139.617 374.518 148.894 385.131 161.229 392.644C168.294 396.945 175.914 399.971 184.338 400.503C185.95 400.604 193.95 400.674 196.42 400.244C206.416 398.491 215.287 394.218 223.254 387.983C233.75 379.772 241.787 369.45 248.861 358.291" stroke="white" stroke-width="3" stroke-miterlimit="10" stroke-linecap="round" stroke-linejoin="round"/>
<path d="M22.9067 325.415C34.4531 325.415 43.8133 316.055 43.8133 304.509C43.8133 292.962 34.4531 283.602 22.9067 283.602C11.3602 283.602 2 292.962 2 304.509C2 316.055 11.3602 325.415 22.9067 325.415Z" stroke="white" stroke-width="3" stroke-miterlimit="10" stroke-linecap="round" stroke-linejoin="round"/>
<path d="M207.227 43.8133C218.773 43.8133 228.133 34.4531 228.133 22.9067C228.133 11.3602 218.773 2 207.227 2C195.68 2 186.32 11.3602 186.32 22.9067C186.32 34.4531 195.68 43.8133 207.227 43.8133Z" stroke="white" stroke-width="3" stroke-miterlimit="10" stroke-linecap="round" stroke-linejoin="round"/>
<path d="M354 330.535C365.546 330.535 374.907 321.175 374.907 309.628C374.907 298.082 365.546 288.722 354 288.722C342.453 288.722 333.093 298.082 333.093 309.628C333.093 321.175 342.453 330.535 354 330.535Z" stroke="white" stroke-width="3" stroke-miterlimit="10" stroke-linecap="round" stroke-linejoin="round"/>
<path d="M188.453 222.198C200 222.198 209.36 212.837 209.36 201.291C209.36 189.745 200 180.384 188.453 180.384C176.907 180.384 167.547 189.745 167.547 201.291C167.547 212.837 176.907 222.198 188.453 222.198Z" fill="white"/>
</svg>
