<svg viewBox="0 0 370 370" fill="none" xmlns="http://www.w3.org/2000/svg">
<path d="M149.226 349.091L149.034 351.199H70.6425V217.033H149.034V219.141H72.9425V282.008H137.534V284.116H72.9425V349.091H149.226Z" fill="white"/>
<path d="M244.386 229.3C244.194 229.683 243.874 229.875 243.428 229.875C242.982 229.875 242.437 229.573 241.798 228.963C241.16 228.355 240.327 227.589 239.306 226.663C238.285 225.737 237.021 224.731 235.52 223.644C234.019 222.558 232.214 221.552 230.106 220.623C227.998 219.697 225.569 218.93 222.823 218.323C220.077 217.716 216.913 217.412 213.335 217.412C207.839 217.412 202.969 218.26 198.72 219.951C194.471 221.644 190.91 223.897 188.035 226.707C185.16 229.519 182.971 232.778 181.47 236.482C179.969 240.188 179.218 244.054 179.218 248.079C179.218 253.254 180.224 257.567 182.237 261.017C184.25 264.467 186.885 267.374 190.143 269.739C193.401 272.101 197.139 274.066 201.356 275.633C205.573 277.198 209.852 278.699 214.198 280.138C218.543 281.576 222.823 283.094 227.039 284.69C231.256 286.289 234.994 288.316 238.253 290.776C241.511 293.235 244.147 296.271 246.159 299.881C248.17 303.49 249.178 308.014 249.178 313.443C249.178 318.939 248.252 324.066 246.398 328.823C244.544 333.582 241.861 337.736 238.348 341.281C234.835 344.826 230.522 347.623 225.41 349.668C220.297 351.711 214.485 352.735 207.968 352.735C203.431 352.735 199.375 352.333 195.796 351.537C192.217 350.738 188.944 349.588 185.974 348.087C183.002 346.586 180.271 344.766 177.78 342.624C175.288 340.484 172.891 338.041 170.591 335.295L170.975 334.911C171.166 334.72 171.326 334.574 171.455 334.481C171.582 334.384 171.806 334.336 172.126 334.336C172.51 334.336 173.068 334.735 173.804 335.532C174.538 336.331 175.544 337.354 176.823 338.599C178.1 339.846 179.633 341.174 181.423 342.578C183.211 343.983 185.383 345.307 187.939 346.556C190.494 347.802 193.415 348.823 196.709 349.622C199.999 350.421 203.754 350.82 207.971 350.82C214.167 350.82 219.678 349.829 224.5 347.848C229.324 345.869 233.414 343.201 236.767 339.844C240.12 336.489 242.676 332.579 244.434 328.106C246.191 323.635 247.071 318.874 247.071 313.827C247.071 309.61 246.413 305.968 245.107 302.902C243.797 299.835 242.025 297.199 239.788 294.996C237.55 292.792 234.948 290.908 231.975 289.341C229.002 287.774 225.827 286.369 222.439 285.124C219.052 283.879 215.602 282.727 212.089 281.674C208.577 280.621 205.127 279.455 201.739 278.177C198.352 276.901 195.175 275.446 192.204 273.816C189.232 272.186 186.628 270.206 184.394 267.874C182.157 265.542 180.385 262.763 179.075 259.536C177.766 256.308 177.111 252.492 177.111 248.083C177.111 243.804 177.91 239.696 179.508 235.769C181.104 231.839 183.438 228.375 186.504 225.372C189.571 222.369 193.357 219.973 197.86 218.183C202.365 216.395 207.525 215.5 213.338 215.5C219.854 215.5 225.621 216.555 230.635 218.663C235.651 220.772 240.363 224.127 244.771 228.727L244.386 229.3Z" fill="white"/>
<path d="M369 1H1V369H369V1Z" stroke="#D6AD43" stroke-width="2" stroke-miterlimit="10"/>
<path d="M325.972 281.314C330.316 282.017 334.485 283.198 338.477 284.86C342.47 286.522 345.985 288.805 349.019 291.713C352.054 294.62 354.482 298.166 356.302 302.351C358.124 306.535 359.033 311.441 359.033 317.062C359.033 322.62 357.994 327.62 355.919 332.059C353.843 336.5 350.936 340.253 347.198 343.32C343.459 346.387 339.019 348.751 333.876 350.412C328.733 352.072 323.061 352.903 316.865 352.903C310.667 352.903 304.997 352.072 299.854 350.412C294.711 348.751 290.271 346.387 286.533 343.32C282.794 340.253 279.887 336.501 277.811 332.059C275.735 327.619 274.697 322.62 274.697 317.062C274.697 311.441 275.608 306.537 277.428 302.351C279.249 298.166 281.677 294.621 284.711 291.713C287.746 288.805 291.26 286.522 295.253 284.86C299.246 283.2 303.413 282.017 307.759 281.314C303.286 280.484 299.308 279.078 295.828 277.097C292.346 275.117 289.406 272.721 287.011 269.909C284.615 267.098 282.794 263.919 281.548 260.373C280.301 256.826 279.679 253.042 279.679 249.017C279.679 244.417 280.525 240.09 282.218 236.031C283.911 231.974 286.339 228.446 289.501 225.442C292.664 222.44 296.545 220.06 301.145 218.303C305.745 216.546 310.983 215.667 316.862 215.667C322.675 215.667 327.897 216.546 332.531 218.303C337.163 220.06 341.061 222.44 344.223 225.442C347.386 228.446 349.813 231.976 351.506 236.031C353.199 240.088 354.045 244.417 354.045 249.017C354.045 253.042 353.423 256.828 352.176 260.373C350.93 263.918 349.11 267.098 346.713 269.909C344.316 272.721 341.378 275.116 337.896 277.097C334.419 279.076 330.443 280.483 325.972 281.314ZM316.867 350.984C322.68 350.984 328.016 350.185 332.872 348.587C337.726 346.991 341.927 344.721 345.474 341.782C349.021 338.844 351.782 335.282 353.763 331.096C355.743 326.912 356.735 322.232 356.735 317.057C356.735 312.394 356.112 308.305 354.866 304.79C353.619 301.278 351.943 298.226 349.835 295.638C347.727 293.05 345.315 290.911 342.599 289.216C339.883 287.524 337.056 286.167 334.118 285.144C331.179 284.123 328.209 283.404 325.205 282.988C322.201 282.572 319.423 282.365 316.867 282.365C314.246 282.365 311.452 282.574 308.481 282.988C305.509 283.404 302.554 284.123 299.617 285.144C296.677 286.167 293.85 287.525 291.136 289.216C288.42 290.909 286.008 293.05 283.9 295.638C281.792 298.226 280.114 301.278 278.869 304.79C277.622 308.305 277 312.394 277 317.057C277 322.232 277.991 326.913 279.972 331.096C281.951 335.281 284.716 338.844 288.261 341.782C291.807 344.721 296.007 346.989 300.863 348.587C305.718 350.185 311.052 350.984 316.867 350.984ZM281.983 249.017C281.983 253.106 282.702 257.035 284.139 260.805C285.577 264.576 287.749 267.914 290.656 270.819C293.563 273.727 297.188 276.059 301.533 277.816C305.877 279.573 310.988 280.452 316.867 280.452C322.68 280.452 327.775 279.575 332.152 277.816C336.529 276.059 340.17 273.728 343.077 270.819C345.985 267.912 348.157 264.576 349.594 260.805C351.032 257.036 351.75 253.106 351.75 249.017C351.75 244.546 350.951 240.377 349.353 236.511C347.756 232.646 345.456 229.323 342.453 226.544C339.45 223.765 335.793 221.578 331.481 219.98C327.168 218.384 322.296 217.584 316.867 217.584C311.436 217.584 306.564 218.383 302.252 219.98C297.939 221.578 294.282 223.766 291.28 226.544C288.276 229.324 285.976 232.646 284.38 236.511C282.782 240.377 281.983 244.546 281.983 249.017Z" fill="white"/>
</svg>
