<svg viewBox="0 0 332 384" fill="none" xmlns="http://www.w3.org/2000/svg">
<path d="M226.016 131.707C231.403 133.779 237.203 136.266 242.177 139.166C271.6 156.156 288.175 186.407 289.005 217.9C297.292 176.461 284.033 133.364 253.782 103.941" stroke="#2196F3" stroke-width="2"/>
<path d="M126.146 74.5195C76.4194 91.0951 40.7814 137.922 40.7814 193.45C40.7814 212.513 44.925 230.333 52.3851 246.492L120.346 230.745C96.725 213.755 80.9778 185.992 80.9778 154.497C81.3913 120.518 99.2102 91.0951 126.146 74.5195Z" stroke="#2196F3" stroke-width="2"/>
<path d="M175.046 286.275C145.625 303.265 111.229 302.435 83.4646 287.517C122.418 321.911 180.848 329.37 228.916 301.607C245.492 292.075 258.754 279.644 269.113 264.724L221.456 214.169C218.556 243.178 202.396 270.527 175.046 286.275Z" stroke="#2196F3" stroke-width="2"/>
<path d="M253.781 103.94C246.321 96.8946 238.033 90.2643 228.917 84.8774C212.341 75.347 194.937 69.9602 177.118 68.7168L156.812 135.434C178.36 125.489 203.224 124.245 226.016 132.119" stroke="#2196F3" stroke-width="2"/>
<path d="M44.925 312.381L165.514 382L330.028 287.103V96.8966L286.103 71.619L165.514 2L1 96.8966V287.105L44.925 312.381Z" stroke="#2196F3" stroke-width="2"/>
</svg>
