<svg viewBox="0 0 370 166" fill="none" xmlns="http://www.w3.org/2000/svg">
<path d="M54.6307 14.4175V157.226H52.2505V14.4175H54.6307Z" fill="#2D9CDB"/>
<path d="M162.727 145.725C161.602 147.111 159.932 148.549 157.719 150.037C155.503 151.524 152.891 152.899 149.884 154.154C146.877 155.41 143.587 156.433 140.016 157.227C136.446 158.02 132.777 158.419 129.008 158.419C122.33 158.419 116.346 157.242 111.058 154.9C105.768 152.552 101.289 149.162 97.62 144.735C93.9506 140.306 91.1242 134.883 89.1408 128.469C87.1573 122.058 86.1656 114.785 86.1656 106.651C86.1656 99.5101 87.1236 92.9826 89.0416 87.0639C90.9596 81.1493 93.7364 76.0736 97.3721 71.8429C101.008 67.6122 105.455 64.3216 110.711 61.9752C115.967 59.6288 121.933 58.4546 128.611 58.4546C133.701 58.4546 138.493 59.363 142.992 61.1818C147.488 63.0007 151.403 65.6942 154.743 69.2644C158.082 72.8346 160.71 77.2161 162.63 82.4048C164.546 87.5955 165.504 93.5617 165.504 100.305C165.504 100.637 165.387 100.885 165.157 101.049C164.925 101.216 164.643 101.297 164.314 101.297H88.7441C88.6766 102.223 88.6271 103.116 88.5953 103.975C88.5596 104.836 88.5457 105.728 88.5457 106.652C88.5457 114.721 89.5037 121.844 91.4217 128.024C93.3377 134.207 96.065 139.397 99.6035 143.594C103.14 147.793 107.404 150.985 112.397 153.166C117.389 155.348 122.925 156.437 129.008 156.437C134.427 156.437 139.124 155.842 143.091 154.654C147.058 153.462 150.364 152.139 153.008 150.687C155.652 149.233 157.671 147.91 159.057 146.72C160.446 145.528 161.273 144.935 161.537 144.935C161.801 144.935 162.066 145.066 162.33 145.33L162.727 145.725ZM163.322 99.5081C163.322 93.2285 162.429 87.657 160.644 82.7975C158.859 77.9381 156.394 73.8561 153.254 70.5497C150.114 67.2453 146.427 64.7322 142.196 63.0126C137.965 61.2949 133.435 60.4341 128.609 60.4341C122.79 60.4341 117.552 61.3604 112.891 63.2109C108.228 65.0635 104.213 67.7074 100.841 71.1447C97.4693 74.5821 94.7738 78.6997 92.7586 83.4917C90.7414 88.2857 89.4363 93.6232 88.8413 99.5081H163.322Z" fill="#2D9CDB"/>
<path d="M245.038 68.5669C244.84 68.9636 244.507 69.1619 244.046 69.1619C243.515 69.1619 242.741 68.7156 241.714 67.8231C240.69 66.9305 239.203 65.9388 237.251 64.8479C235.303 63.757 232.838 62.7494 229.863 61.8231C226.888 60.8988 223.218 60.4347 218.857 60.4347C214.755 60.4347 211.004 61.0635 207.599 62.319C204.193 63.5765 201.269 65.2446 198.82 67.3272C196.376 69.4098 194.474 71.8078 193.117 74.5172C191.761 77.2286 191.088 80.0709 191.088 83.0461C191.088 86.5508 191.913 89.4764 193.568 91.8229C195.218 94.1713 197.384 96.1547 200.059 97.7732C202.741 99.3937 205.798 100.766 209.233 101.889C212.672 103.014 216.175 104.12 219.747 105.211C223.319 106.304 226.82 107.46 230.262 108.682C233.697 109.906 236.753 111.445 239.435 113.294C242.113 115.146 244.277 117.409 245.927 120.087C247.581 122.765 248.406 126.087 248.406 130.054C248.406 134.021 247.698 137.756 246.276 141.26C244.854 144.765 242.789 147.804 240.078 150.384C237.366 152.963 234.042 155.014 230.111 156.533C226.18 158.054 221.697 158.814 216.673 158.814C213.17 158.814 210.028 158.53 207.251 157.969C204.479 157.408 201.928 156.632 199.615 155.64C197.302 154.649 195.117 153.425 193.072 151.969C191.019 150.515 189.004 148.895 187.022 147.11L187.617 146.515C187.816 146.314 187.978 146.167 188.113 146.066C188.244 145.969 188.474 145.92 188.807 145.92C189.335 145.92 190.194 146.481 191.384 147.605C192.578 148.73 194.242 149.986 196.392 151.374C198.542 152.761 201.269 154.02 204.574 155.143C207.878 156.265 211.915 156.829 216.673 156.829C221.433 156.829 225.648 156.134 229.317 154.744C232.991 153.358 236.077 151.457 238.592 149.042C241.103 146.63 243.005 143.819 244.294 140.612C245.584 137.409 246.228 133.953 246.228 130.248C246.228 126.48 245.403 123.356 243.749 120.876C242.095 118.397 239.933 116.297 237.253 114.577C234.576 112.861 231.519 111.421 228.08 110.265C224.644 109.107 221.138 107.998 217.569 106.941C213.997 105.884 210.492 104.759 207.055 103.571C203.62 102.379 200.559 100.909 197.882 99.1557C195.204 97.4043 193.04 95.2364 191.386 92.6618C189.736 90.0814 188.906 86.8761 188.906 83.0401C188.906 79.8012 189.634 76.7109 191.092 73.7675C192.544 70.828 194.595 68.2138 197.241 65.9329C199.883 63.6519 203.041 61.835 206.712 60.4784C210.381 59.1237 214.43 58.4453 218.861 58.4453C224.347 58.4453 229.173 59.1891 233.338 60.6767C237.503 62.1643 241.535 64.594 245.437 67.9659L245.038 68.5669Z" fill="#2D9CDB"/>
<path d="M328.044 68.5669C327.841 68.9636 327.512 69.1619 327.052 69.1619C326.52 69.1619 325.743 68.7156 324.719 67.8231C323.692 66.9305 322.204 65.9388 320.257 64.8479C318.305 63.757 315.843 62.7494 312.868 61.8231C309.893 60.8988 306.224 60.4347 301.858 60.4347C297.76 60.4347 294.006 61.0635 290.604 62.319C287.194 63.5765 284.271 65.2446 281.825 67.3272C279.378 69.4098 277.48 71.8078 276.123 74.5172C274.766 77.2286 274.09 80.0709 274.09 83.0461C274.09 86.5508 274.915 89.4764 276.569 91.8229C278.223 94.1713 280.389 96.1547 283.065 97.7732C285.743 99.3937 288.799 100.766 292.238 101.889C295.674 103.014 299.18 104.12 302.753 105.211C306.321 106.304 309.826 107.46 313.263 108.682C316.698 109.906 319.759 111.445 322.436 113.294C325.114 115.146 327.278 117.409 328.932 120.087C330.583 122.765 331.412 126.087 331.412 130.054C331.412 134.021 330.7 137.756 329.281 141.26C327.855 144.765 325.79 147.804 323.083 150.384C320.372 152.963 317.047 155.014 313.116 156.533C309.181 158.054 304.702 158.814 299.678 158.814C296.172 158.814 293.034 158.53 290.257 157.969C287.48 157.408 284.933 156.632 282.621 155.64C280.304 154.649 278.122 153.425 276.073 151.969C274.024 150.513 272.009 148.895 270.026 147.11L270.619 146.515C270.817 146.314 270.984 146.167 271.115 146.066C271.246 145.969 271.48 145.92 271.809 145.92C272.34 145.92 273.199 146.481 274.389 147.605C275.579 148.73 277.247 149.986 279.398 151.374C281.544 152.761 284.271 154.02 287.579 155.143C290.884 156.265 294.916 156.829 299.678 156.829C304.441 156.829 308.653 156.134 312.323 154.744C315.992 153.358 319.082 151.457 321.597 149.042C324.109 146.63 326.011 143.819 327.3 140.612C328.585 137.409 329.234 133.953 329.234 130.248C329.234 126.48 328.405 123.356 326.754 120.876C325.1 118.397 322.934 116.297 320.259 114.577C317.581 112.861 314.521 111.421 311.085 110.265C307.646 109.107 304.143 107.998 300.571 106.941C297.003 105.884 293.498 104.759 290.061 103.571C286.621 102.379 283.565 100.909 280.887 99.1557C278.209 97.4043 276.042 95.2364 274.391 92.6618C272.737 90.0814 271.912 86.8761 271.912 83.0401C271.912 79.8012 272.64 76.7109 274.094 73.7675C275.546 70.828 277.601 68.2138 280.242 65.9329C282.888 63.6519 286.046 61.835 289.713 60.4784C293.383 59.1237 297.435 58.4453 301.862 58.4453C307.352 58.4453 312.178 59.1891 316.343 60.6767C320.509 62.1643 324.541 64.594 328.442 67.9659L328.044 68.5669Z" fill="#2D9CDB"/>
<path d="M27.5822 1.58689C27.5822 1.58689 9.98108 -4.85933 9.98108 24.9758V71.0157C9.98108 71.0157 12.0478 76.7677 1 82.9164" stroke="#2D9CDB" stroke-width="2" stroke-miterlimit="10"/>
<path d="M28.1357 163.913C28.1357 163.913 9.98113 170.357 9.98113 140.524V94.4818C9.98113 94.4818 12.3256 88.7298 1.27576 82.5811" stroke="#2D9CDB" stroke-width="2" stroke-miterlimit="10"/>
<path d="M343.368 1.58689C343.368 1.58689 359.069 -4.85933 359.069 24.9758V71.0157C359.069 71.0157 357.952 76.7677 369 82.9164" stroke="#2D9CDB" stroke-width="2" stroke-miterlimit="10"/>
<path d="M342.814 163.913C342.814 163.913 359.069 170.357 359.069 140.524V94.4818C359.069 94.4818 357.672 88.7298 368.72 82.5811" stroke="#2D9CDB" stroke-width="2" stroke-miterlimit="10"/>
</svg>
