<svg viewBox="0 0 381 133" fill="none" xmlns="http://www.w3.org/2000/svg">
<mask id="path-1-inside-1" fill="white">
<path fill-rule="evenodd" clip-rule="evenodd" d="M33.9817 0.888C33.0055 1.51 41.5638 9.537 65.149 30.123C83.0319 45.73 98.0807 58.65 98.5892 58.833C99.1435 59.033 99.5157 50.209 99.5157 36.899C99.5157 16.365 99.3545 14.296 97.4388 10.32C95.5132 6.32201 93.6532 4.35401 88.9252 1.30901C87.4644 0.367006 91.9585 0.105006 110.363 0.0590057L133.65 0L129.433 3.069C126.84 4.957 124.471 7.83299 123.279 10.54C121.427 14.748 121.353 17.249 121.624 67.221C121.89 116.309 122.022 119.734 123.803 123.339C126.284 128.359 132.417 132.573 135.123 131.117C138.445 129.331 143.148 123.222 144.238 119.277C145.857 113.417 145.54 64.441 143.851 59.684C142.186 54.991 139.857 52.324 135.438 50.045L132.049 48.299L136.93 47.671C139.613 47.326 145.616 46.78 150.269 46.459C154.921 46.138 159.715 45.675 160.922 45.43L163.116 44.984L163.41 82.742C163.743 125.575 163.52 124.361 172.083 130.068L176.484 133H131.472C101.718 133 86.6692 132.661 87.0762 132C87.4146 131.45 88.2674 131 88.973 131C91.3116 131 97.1034 124.359 98.3185 120.283C99.048 117.836 99.5157 109.61 99.5157 99.219V82.17L63.1139 50.335C43.0934 32.826 25.8523 17.883 24.8004 17.128C22.9216 15.78 22.8887 16.656 22.9046 67.628L22.9216 119.5L25.1706 123.5C26.4086 125.7 29.1483 128.625 31.26 130L35.0993 132.5L26.0085 132.788C21.0089 132.946 12.776 132.946 7.71261 132.788C-0.222757 132.54 -1.1383 132.34 1.07592 131.339C4.62763 129.734 9.21032 124.649 10.6165 120.753C12.159 116.48 12.4197 18.268 10.9031 12.78C9.89399 9.132 5.40684 3.66601 1.48493 1.30901C-0.0993579 0.357006 3.09608 0.109005 17.4154 0.0740051C27.7361 0.0490051 34.7579 0.394001 33.9817 0.888ZM155.814 1.75C156.845 3.152 157.351 3.252 158.362 2.25C160.354 0.276 162.177 0.780005 163.244 3.60201C163.931 5.41701 164.713 6.016 165.834 5.584C168.237 4.657 170.25 6.836 169.557 9.614C169.068 11.572 169.343 12 171.09 12C173.4 12 175.262 15.128 173.336 15.773C171.665 16.333 171.881 18.955 173.655 19.638C175.657 20.411 175.546 22.987 173.444 24.532C172.009 25.586 171.948 26.036 173.058 27.379C174.808 29.499 173.744 32 171.09 32C169.343 32 169.068 32.428 169.557 34.386C170.25 37.164 168.237 39.343 165.834 38.416C164.705 37.981 163.924 38.6 163.205 40.503C162.345 42.775 161.768 43.105 159.612 42.562C158.189 42.203 156.445 42.414 155.699 43.036C154.826 43.763 152.433 43.916 148.883 43.47C144.312 42.896 143.363 42.432 143.108 40.642C142.87 38.959 142.219 38.562 140.068 38.788C137.349 39.074 137.153 38.807 136.936 34.5C136.871 33.228 136.019 32.384 134.595 32.18C132.308 31.854 131.433 28.691 133.307 27.527C134.632 26.704 133.44 24 131.752 24C130.989 24 130.365 23.1 130.365 22C130.365 20.84 131.029 20 131.946 20C133.233 20 133.404 19.272 132.866 16.079C132.266 12.508 132.414 12.129 134.521 11.829C136.389 11.563 136.779 10.971 136.547 8.75C136.263 6.018 136.528 5.821 140.815 5.60201C142.102 5.53601 142.806 4.799 142.807 3.513C142.809 1.239 145.733 0.291993 147.696 1.92999C148.669 2.74099 149.332 2.63399 150.259 1.51199C151.921 -0.500007 154.232 -0.401 155.814 1.75ZM352.001 1.62399C363.643 5.59499 370.071 13.624 368.839 22.657C367.339 33.652 358.86 42.609 342.811 50.156C339.264 51.824 336.363 53.419 336.363 53.7C336.363 53.982 337.648 55.852 339.221 57.856C344.863 65.052 355.418 82.039 358.695 89.2C360.532 93.215 363.692 101.675 365.715 108C367.739 114.325 369.855 120.74 370.417 122.255C371.379 124.851 375.509 129.027 379.747 131.691C381.249 132.636 377.145 132.895 359.939 132.941C345.709 132.98 338.447 132.656 338.851 132C339.189 131.45 340.027 131 340.713 131C341.4 131 343.23 129.669 344.782 128.042C347.532 125.157 347.586 124.887 346.952 117.25C345.646 101.518 340.014 87.531 327.041 67.803L321.321 59.105L307.695 63.96C300.201 66.63 293.284 69.129 292.327 69.514C290.735 70.154 290.585 72.311 290.585 94.647C290.585 123.956 290.906 125.076 301.176 131.691C302.635 132.631 297.99 132.882 279.141 132.882C260.266 132.882 255.655 132.633 257.152 131.691C258.195 131.036 260.548 129.215 262.38 127.644C268.556 122.351 268.719 120.641 268.441 64L268.194 13.5L265.418 8.75301C263.728 5.86601 261.195 3.239 258.949 2.047L255.257 0.0879974L301.249 0.0440063C341.154 0.00600635 347.87 0.214993 352.001 1.62399ZM299.044 8.144C290.652 9.695 290.585 9.906 290.585 34.718C290.585 54.789 290.701 56.168 292.327 55.517C293.284 55.133 300.562 52.558 308.498 49.795C340.055 38.809 345.319 34.789 345.319 21.68C345.319 14.286 342.38 9.921 336.332 8.33C331.082 6.95 306.177 6.825 299.044 8.144ZM144.514 9.561C142.387 11.057 139.322 15.921 139.322 17.798C139.322 18.291 140.308 19.137 141.513 19.677C143.381 20.515 144.253 20.081 147.422 16.732C150.574 13.403 151.002 12.439 150.232 10.402C149.175 7.60999 147.612 7.38 144.514 9.561ZM156.026 10.573C154.965 12.912 155.148 13.373 158.037 15.645C159.785 17.02 161.215 18.787 161.215 19.572C161.215 21.3 161.427 21.316 164.665 19.833C167.459 18.554 167.361 16.257 164.355 12.5C160.196 7.301 157.764 6.739 156.026 10.573ZM150.81 19.344C148.462 21.069 149.399 25.538 152.266 26.291C154.431 26.861 157.235 24.722 157.235 22.5C157.235 21.061 154.608 18 153.373 18C152.969 18 151.816 18.605 150.81 19.344ZM140.946 25.685C137.902 27.287 138.319 28.814 142.968 33.103C147.13 36.943 148.839 37.254 150.13 34.406C151.115 32.233 150.823 31.557 147.413 28.131C143.783 24.483 143.461 24.361 140.946 25.685ZM160.94 25.95C160.661 27.022 159.088 28.721 157.445 29.725C154.59 31.47 154.521 31.673 155.881 34.283C157.253 36.912 157.413 36.959 160.167 35.527C163.277 33.911 167.186 29.455 167.186 27.526C167.186 26.863 166.046 25.799 164.652 25.161C161.418 23.68 161.538 23.655 160.94 25.95ZM233.364 49.442C241.846 53.638 249.48 61.204 253.599 69.5C259.214 80.807 261.763 78.881 225.233 90.936C207.623 96.746 192.918 101.802 192.553 102.171C191.401 103.337 196.908 111.601 202.067 116.451C210.656 124.523 217.381 126.371 229.086 123.876C240.427 121.458 249.921 114.504 254.377 105.355C255.841 102.349 257.397 100.251 257.835 100.695C258.274 101.138 257.034 107.913 255.08 115.75C251.578 129.792 251.487 130 248.772 130C247.256 130 242.565 130.717 238.348 131.594C227.061 133.939 205.543 133.182 197.932 130.171C189.228 126.728 183.233 122.184 178.063 115.11C169.43 103.296 166.977 89.366 171.143 75.813C179.144 49.784 208.716 37.25 233.364 49.442ZM203.049 53.152C195.66 55.33 191.006 60.805 188.497 70.275C186.936 76.167 186.661 86.772 188.014 88.92C188.753 90.093 192.77 89.074 211.136 83.052C223.362 79.043 233.798 75.359 234.327 74.864C234.939 74.292 234.591 72.66 233.371 70.384C226.71 57.954 213.065 50.2 203.049 53.152Z"/>
</mask>
<path fill-rule="evenodd" clip-rule="evenodd" d="M33.9817 0.888C33.0055 1.51 41.5638 9.537 65.149 30.123C83.0319 45.73 98.0807 58.65 98.5892 58.833C99.1435 59.033 99.5157 50.209 99.5157 36.899C99.5157 16.365 99.3545 14.296 97.4388 10.32C95.5132 6.32201 93.6532 4.35401 88.9252 1.30901C87.4644 0.367006 91.9585 0.105006 110.363 0.0590057L133.65 0L129.433 3.069C126.84 4.957 124.471 7.83299 123.279 10.54C121.427 14.748 121.353 17.249 121.624 67.221C121.89 116.309 122.022 119.734 123.803 123.339C126.284 128.359 132.417 132.573 135.123 131.117C138.445 129.331 143.148 123.222 144.238 119.277C145.857 113.417 145.54 64.441 143.851 59.684C142.186 54.991 139.857 52.324 135.438 50.045L132.049 48.299L136.93 47.671C139.613 47.326 145.616 46.78 150.269 46.459C154.921 46.138 159.715 45.675 160.922 45.43L163.116 44.984L163.41 82.742C163.743 125.575 163.52 124.361 172.083 130.068L176.484 133H131.472C101.718 133 86.6692 132.661 87.0762 132C87.4146 131.45 88.2674 131 88.973 131C91.3116 131 97.1034 124.359 98.3185 120.283C99.048 117.836 99.5157 109.61 99.5157 99.219V82.17L63.1139 50.335C43.0934 32.826 25.8523 17.883 24.8004 17.128C22.9216 15.78 22.8887 16.656 22.9046 67.628L22.9216 119.5L25.1706 123.5C26.4086 125.7 29.1483 128.625 31.26 130L35.0993 132.5L26.0085 132.788C21.0089 132.946 12.776 132.946 7.71261 132.788C-0.222757 132.54 -1.1383 132.34 1.07592 131.339C4.62763 129.734 9.21032 124.649 10.6165 120.753C12.159 116.48 12.4197 18.268 10.9031 12.78C9.89399 9.132 5.40684 3.66601 1.48493 1.30901C-0.0993579 0.357006 3.09608 0.109005 17.4154 0.0740051C27.7361 0.0490051 34.7579 0.394001 33.9817 0.888ZM155.814 1.75C156.845 3.152 157.351 3.252 158.362 2.25C160.354 0.276 162.177 0.780005 163.244 3.60201C163.931 5.41701 164.713 6.016 165.834 5.584C168.237 4.657 170.25 6.836 169.557 9.614C169.068 11.572 169.343 12 171.09 12C173.4 12 175.262 15.128 173.336 15.773C171.665 16.333 171.881 18.955 173.655 19.638C175.657 20.411 175.546 22.987 173.444 24.532C172.009 25.586 171.948 26.036 173.058 27.379C174.808 29.499 173.744 32 171.09 32C169.343 32 169.068 32.428 169.557 34.386C170.25 37.164 168.237 39.343 165.834 38.416C164.705 37.981 163.924 38.6 163.205 40.503C162.345 42.775 161.768 43.105 159.612 42.562C158.189 42.203 156.445 42.414 155.699 43.036C154.826 43.763 152.433 43.916 148.883 43.47C144.312 42.896 143.363 42.432 143.108 40.642C142.87 38.959 142.219 38.562 140.068 38.788C137.349 39.074 137.153 38.807 136.936 34.5C136.871 33.228 136.019 32.384 134.595 32.18C132.308 31.854 131.433 28.691 133.307 27.527C134.632 26.704 133.44 24 131.752 24C130.989 24 130.365 23.1 130.365 22C130.365 20.84 131.029 20 131.946 20C133.233 20 133.404 19.272 132.866 16.079C132.266 12.508 132.414 12.129 134.521 11.829C136.389 11.563 136.779 10.971 136.547 8.75C136.263 6.018 136.528 5.821 140.815 5.60201C142.102 5.53601 142.806 4.799 142.807 3.513C142.809 1.239 145.733 0.291993 147.696 1.92999C148.669 2.74099 149.332 2.63399 150.259 1.51199C151.921 -0.500007 154.232 -0.401 155.814 1.75ZM352.001 1.62399C363.643 5.59499 370.071 13.624 368.839 22.657C367.339 33.652 358.86 42.609 342.811 50.156C339.264 51.824 336.363 53.419 336.363 53.7C336.363 53.982 337.648 55.852 339.221 57.856C344.863 65.052 355.418 82.039 358.695 89.2C360.532 93.215 363.692 101.675 365.715 108C367.739 114.325 369.855 120.74 370.417 122.255C371.379 124.851 375.509 129.027 379.747 131.691C381.249 132.636 377.145 132.895 359.939 132.941C345.709 132.98 338.447 132.656 338.851 132C339.189 131.45 340.027 131 340.713 131C341.4 131 343.23 129.669 344.782 128.042C347.532 125.157 347.586 124.887 346.952 117.25C345.646 101.518 340.014 87.531 327.041 67.803L321.321 59.105L307.695 63.96C300.201 66.63 293.284 69.129 292.327 69.514C290.735 70.154 290.585 72.311 290.585 94.647C290.585 123.956 290.906 125.076 301.176 131.691C302.635 132.631 297.99 132.882 279.141 132.882C260.266 132.882 255.655 132.633 257.152 131.691C258.195 131.036 260.548 129.215 262.38 127.644C268.556 122.351 268.719 120.641 268.441 64L268.194 13.5L265.418 8.75301C263.728 5.86601 261.195 3.239 258.949 2.047L255.257 0.0879974L301.249 0.0440063C341.154 0.00600635 347.87 0.214993 352.001 1.62399ZM299.044 8.144C290.652 9.695 290.585 9.906 290.585 34.718C290.585 54.789 290.701 56.168 292.327 55.517C293.284 55.133 300.562 52.558 308.498 49.795C340.055 38.809 345.319 34.789 345.319 21.68C345.319 14.286 342.38 9.921 336.332 8.33C331.082 6.95 306.177 6.825 299.044 8.144ZM144.514 9.561C142.387 11.057 139.322 15.921 139.322 17.798C139.322 18.291 140.308 19.137 141.513 19.677C143.381 20.515 144.253 20.081 147.422 16.732C150.574 13.403 151.002 12.439 150.232 10.402C149.175 7.60999 147.612 7.38 144.514 9.561ZM156.026 10.573C154.965 12.912 155.148 13.373 158.037 15.645C159.785 17.02 161.215 18.787 161.215 19.572C161.215 21.3 161.427 21.316 164.665 19.833C167.459 18.554 167.361 16.257 164.355 12.5C160.196 7.301 157.764 6.739 156.026 10.573ZM150.81 19.344C148.462 21.069 149.399 25.538 152.266 26.291C154.431 26.861 157.235 24.722 157.235 22.5C157.235 21.061 154.608 18 153.373 18C152.969 18 151.816 18.605 150.81 19.344ZM140.946 25.685C137.902 27.287 138.319 28.814 142.968 33.103C147.13 36.943 148.839 37.254 150.13 34.406C151.115 32.233 150.823 31.557 147.413 28.131C143.783 24.483 143.461 24.361 140.946 25.685ZM160.94 25.95C160.661 27.022 159.088 28.721 157.445 29.725C154.59 31.47 154.521 31.673 155.881 34.283C157.253 36.912 157.413 36.959 160.167 35.527C163.277 33.911 167.186 29.455 167.186 27.526C167.186 26.863 166.046 25.799 164.652 25.161C161.418 23.68 161.538 23.655 160.94 25.95ZM233.364 49.442C241.846 53.638 249.48 61.204 253.599 69.5C259.214 80.807 261.763 78.881 225.233 90.936C207.623 96.746 192.918 101.802 192.553 102.171C191.401 103.337 196.908 111.601 202.067 116.451C210.656 124.523 217.381 126.371 229.086 123.876C240.427 121.458 249.921 114.504 254.377 105.355C255.841 102.349 257.397 100.251 257.835 100.695C258.274 101.138 257.034 107.913 255.08 115.75C251.578 129.792 251.487 130 248.772 130C247.256 130 242.565 130.717 238.348 131.594C227.061 133.939 205.543 133.182 197.932 130.171C189.228 126.728 183.233 122.184 178.063 115.11C169.43 103.296 166.977 89.366 171.143 75.813C179.144 49.784 208.716 37.25 233.364 49.442ZM203.049 53.152C195.66 55.33 191.006 60.805 188.497 70.275C186.936 76.167 186.661 86.772 188.014 88.92C188.753 90.093 192.77 89.074 211.136 83.052C223.362 79.043 233.798 75.359 234.327 74.864C234.939 74.292 234.591 72.66 233.371 70.384C226.71 57.954 213.065 50.2 203.049 53.152Z" stroke="white" stroke-width="4" mask="url(#path-1-inside-1)"/>
</svg>
