<svg viewBox="0 0 435 481" fill="none" xmlns="http://www.w3.org/2000/svg">
<path d="M137.61 145.831V365.33C137.61 365.33 136.244 424.038 81.6321 404.924L13.3661 366.696C13.3661 366.696 -0.287912 360.276 2.44412 347.103L2.08367 135.954C2.08367 135.954 -0.285865 123.666 20.1941 108.648L201.784 6.24801C201.784 6.24801 215.436 -3.31001 229.09 6.24801L418.872 110.014C418.872 110.014 429.794 115.474 429.794 133.224L432.526 347.103C432.526 347.103 428.43 365.328 418.872 368.06L226.36 475.922C226.36 475.922 211.342 482.748 203.15 475.922L149.902 443.154" stroke="white" stroke-width="3" stroke-miterlimit="10"/>
<path d="M345.298 193.37C341.433 179.147 332.146 169.926 318.77 164.344C309.839 160.616 300.569 158.462 290.997 157.167C284.038 156.225 277.063 156.096 270.097 156.08C256.036 156.049 242.195 157.921 228.822 162.437C221.957 164.753 215.59 167.952 210.081 172.91C203.689 178.663 199.871 185.327 199.488 194.103C199.128 202.375 200.686 209.748 206.148 216.269C211.148 222.237 217.433 226.306 224.421 229.171C236.402 234.082 249.027 236.81 261.744 239.085C267.566 240.126 273.362 241.307 279.197 242.252C287.067 243.525 294.97 244.595 302.787 246.202C314.144 248.539 325.242 251.683 335.455 257.298C344.821 262.451 351.212 270.125 352.847 280.873C354.792 293.658 352.378 305.121 341.915 314.102C334.085 320.821 325.039 324.827 315.309 327.52C304.154 330.604 292.695 331.837 281.159 332.484C266.718 333.293 252.503 332.044 238.65 327.778C225.16 323.623 213.134 316.936 203.779 306.145C197.909 299.376 194.401 291.369 192.63 282.546" stroke="white" stroke-width="3" stroke-miterlimit="10" stroke-linecap="round" stroke-linejoin="round"/>
</svg>
