<svg viewBox="0 0 311 380" fill="none" xmlns="http://www.w3.org/2000/svg">
<mask id="mask0" mask-type="alpha" maskUnits="userSpaceOnUse" x="174" y="0" width="137" height="380">
<path d="M174.197 0H310.197V380H174.197V0Z" fill="white"/>
</mask>
<g mask="url(#mask0)">
<path d="M281.181 79.9137C281.181 99.9818 264.913 116.25 244.845 116.25C224.777 116.25 208.508 99.9818 208.508 79.9137C208.508 59.8456 224.777 43.5771 244.845 43.5771C264.913 43.5771 281.181 59.8456 281.181 79.9137Z" fill="#119BCF" stroke="#119BCF" stroke-width="5"/>
<path d="M248.867 138.87L249.232 142.181L177.589 227.101L177.45 154.352L178.97 85.4746L248.867 138.87Z" fill="#119BCF"/>
<path d="M298.345 228.925L254.073 195.154L244.117 145.916M170.812 224.2L218.944 292.248L164.118 348.486L170.812 224.2Z" stroke="#119BCF" stroke-width="16" stroke-linecap="round" stroke-linejoin="round"/>
<path d="M177.035 0.000976562V380.07" stroke="#119BCF" stroke-width="10.131" stroke-miterlimit="5"/>
</g>
<path d="M3.62826 256.349L3.5109 281.942H141.202V245.076H65.4219H62.7133L64.772 243.316L98.4578 214.518L98.4629 214.513C106.498 207.738 113.389 201.411 118.94 195.705L118.94 195.705C124.563 189.928 129.051 183.87 132.285 177.708L132.286 177.707C135.571 171.453 137.236 164.593 137.236 157.314C137.236 148.646 135.532 140.557 132.174 133.259L132.174 133.258C128.815 125.942 124.06 119.644 118.034 114.528C112.045 109.449 104.928 105.502 96.8777 102.813C88.8778 100.14 80.0862 98.7793 70.7417 98.7793C58.3986 98.7793 47.0083 101.254 36.8623 106.125C26.6403 111.033 18.5019 118.175 12.6472 127.356L12.6471 127.356C6.78793 136.54 3.80674 147.37 3.80674 159.579V161.068H45.9053V159.579C45.9053 151.615 48.1767 145.677 53.0137 141.661L3.62826 256.349ZM3.62826 256.349L74.1497 187.991L74.1861 187.962L74.1945 187.955L74.2028 187.948C81.3937 181.973 86.7875 176.554 90.2023 171.837C93.45 167.352 95.1349 162.658 95.1349 157.887C95.1349 151.162 92.9745 145.846 88.489 141.758L88.4886 141.757C84.0035 137.673 77.9953 135.648 70.7357 135.648C63.7208 135.648 57.8963 137.605 53.0139 141.661L3.62826 256.349Z" stroke="white" stroke-width="2"/>
</svg>
