<svg viewBox="0 0 370 370" fill="none" xmlns="http://www.w3.org/2000/svg">
<path d="M185 369C286.62 369 369 286.62 369 185C369 83.3796 286.62 1 185 1C83.3796 1 1 83.3796 1 185C1 286.62 83.3796 369 185 369Z" stroke="#FF7474" stroke-width="2" stroke-miterlimit="10"/>
<path d="M25.4315 274.24L184.792 3.38818L344.147 274.24H25.4315Z" stroke="#FF7474" stroke-width="2" stroke-miterlimit="10"/>
<path d="M257.68 128.88H112.32V274.24H257.68V128.88Z" stroke="#FF7474" stroke-width="2" stroke-miterlimit="10"/>
<path d="M185 274.24C225.14 274.24 257.68 241.7 257.68 201.56C257.68 161.42 225.14 128.88 185 128.88C144.86 128.88 112.32 161.42 112.32 201.56C112.32 241.7 144.86 274.24 185 274.24Z" stroke="#FF7474" stroke-width="2" stroke-miterlimit="10"/>
</svg>
