<svg viewBox="0 0 372 372" fill="none" xmlns="http://www.w3.org/2000/svg">
<path d="M184.673 2C91.2522 2.00001 97.086 42.7251 97.086 42.7251L97.1901 84.9159H186.34V97.5836H61.7802C61.7802 97.5836 2 90.7685 2 185.525C1.99999 280.281 54.1775 276.921 54.1775 276.921H85.3174V232.95C85.3174 232.95 83.6389 180.499 136.662 180.499C189.685 180.499 225.082 180.499 225.082 180.499C225.082 180.499 274.76 181.307 274.76 132.237C274.76 83.1664 274.76 51.1004 274.76 51.1004C274.76 51.1004 282.303 2 184.673 2ZM135.516 30.3715C144.386 30.3715 151.555 37.5778 151.555 46.494C151.555 55.4101 144.386 62.6165 135.516 62.6165C126.646 62.6165 119.478 55.4101 119.478 46.494C119.478 37.5778 126.646 30.3715 135.516 30.3715Z" stroke="#446785" stroke-width="2.23214"/>
<path d="M187.327 370C280.748 370 274.914 329.275 274.914 329.275L274.81 287.084H185.66V274.416H310.22C310.22 274.416 370 281.231 370 186.475C370 91.7189 317.822 95.0792 317.822 95.0792H286.683V139.05C286.683 139.05 288.361 191.5 235.338 191.5C182.315 191.5 146.918 191.5 146.918 191.5C146.918 191.5 97.2396 190.693 97.2396 239.763C97.2396 288.833 97.2396 320.899 97.2396 320.899C97.2396 320.899 89.6971 370 187.327 370ZM236.484 341.628C227.614 341.628 220.445 334.422 220.445 325.506C220.445 316.59 227.614 309.383 236.484 309.383C245.354 309.383 252.522 316.59 252.522 325.506C252.522 334.422 245.354 341.628 236.484 341.628Z" stroke="#D6AD43" stroke-width="2.23214"/>
</svg>
