<svg viewBox="0 0 187 374" fill="none" xmlns="http://www.w3.org/2000/svg">
<path d="M3 63.0523V313.153C3 313.153 3 370.946 91.3342 370.946C91.3342 370.946 184.882 374.912 184.882 315.15V156.193C184.882 156.193 178.448 123.692 121.839 123.692C121.839 123.692 82.9042 122.879 80.9074 135.339L80.5008 72.7027C80.5008 72.7027 92.9618 58.6521 109.009 73.1093L108.602 110.454H184.882V63.0523C184.882 63.0523 184.697 -0.360399 95.0692 3.22597C95.0311 3.22597 9.84043 -3.98422 3 63.0523Z" stroke="white" stroke-width="4.0783" stroke-miterlimit="10"/>
<path d="M62.8263 210.399V325.207H60.4966V331.382H66.5976V333.637H84.9004V331.124H87.3406V271.408C87.3406 271.408 93.9593 262.719 109.267 264.642V233.435C109.267 233.435 122.578 226.595 147.241 226.595V198.049C147.241 198.049 138.071 184.997 116.773 199.566C116.773 199.566 92.4435 212.877 87.3038 197.939H67.2265V199.935H62.7158V204.151H60.5341V208.81H62.7526L62.8263 210.399V210.399Z" stroke="white" stroke-width="4.0783" stroke-miterlimit="10"/>
<path d="M89.2631 244.564V262.128H107.196V237.798L104.682 233.397H100.541L100.652 237.538C100.652 237.538 104.904 238.278 105.422 240.94L103.833 242.456C103.868 242.42 99.2833 235.542 89.2631 244.564V244.564Z" stroke="white" stroke-width="4.0783" stroke-miterlimit="10"/>
</svg>
