<svg version="1" xmlns="http://www.w3.org/2000/svg" width="1333.333" height="1333.333" viewBox="0 0 1000.000000 1000.000000"><path d="M200.2 200.3L0 400.5V1000h601.5l199.2-199.2L1000 601.5V0H400.5L200.2 200.3zm305 221.2l.3 70.5 60-34.7c33-19 60.7-34.8 61.5-35 .9-.2 2.4 1.1 3.7 3.5l2.2 3.9-60.5 34.9c-33.2 19.2-60.4 35.3-60.4 35.9 0 .5 27.2 16.7 60.4 35.9l60.5 34.9-2.2 3.9c-1.3 2.4-2.8 3.7-3.7 3.5-.8-.2-28.5-16-61.5-35l-60-34.7-.3 70.5-.2 70.5h-9l-.2-70.5-.3-70.5-60 34.7c-33 19-60.7 34.8-61.5 35-.9.2-2.4-1.1-3.7-3.5l-2.2-3.9 60.7-35c33.4-19.3 60.6-35.5 60.5-35.9-.2-.5-27.5-16.6-60.7-35.8l-60.5-34.9 2.2-3.9c1.3-2.4 2.8-3.7 3.7-3.5.8.2 28.5 16 61.5 35l60 34.7.3-70.5.2-70.5h9l.2 70.5z"/></svg>