<?xml version="1.0" standalone="no"?>
<!DOCTYPE svg PUBLIC "-//W3C//DTD SVG 20010904//EN"
 "http://www.w3.org/TR/2001/REC-SVG-20010904/DTD/svg10.dtd">
<svg version="1.0" xmlns="http://www.w3.org/2000/svg"
 width="1024.000000pt" height="1024.000000pt" viewBox="0 0 1024.000000 1024.000000"
 preserveAspectRatio="xMidYMid meet">
<metadata>
Created by potrace 1.11, written by Peter Selinger 2001-2013
</metadata>
<g transform="translate(0.000000,1024.000000) scale(0.100000,-0.100000)"
fill="#000000" stroke="none">
<path d="M0 5120 l0 -5120 5120 0 5120 0 0 5120 0 5120 -5120 0 -5120 0 0
-5120z m3209 3563 l631 -893 2 -1386 3 -1386 1908 2106 c1050 1158 1913 2108
1918 2111 5 4 7 0 4 -7 -2 -7 -146 -557 -320 -1221 l-315 -1208 -551 -616
c-304 -339 -552 -622 -553 -629 0 -7 293 -355 651 -773 l653 -760 315 -1208
c174 -664 317 -1214 320 -1220 2 -7 2 -13 0 -13 -2 0 -563 622 -1247 1383
-683 760 -1303 1450 -1378 1532 l-136 151 -635 -710 -634 -709 -5 -1290 -5
-1290 -637 901 -638 902 0 3572 c0 2157 4 3568 9 3563 5 -6 293 -412 640 -902z"/>
</g>
</svg>
