<?xml version="1.0" encoding="iso-8859-1"?>
<!-- Generator: Adobe Illustrator 16.0.0, SVG Export Plug-In . SVG Version: 6.00 Build 0)  -->
<!DOCTYPE svg PUBLIC "-//W3C//DTD SVG 1.1//EN" "http://www.w3.org/Graphics/SVG/1.1/DTD/svg11.dtd">
<svg version="1.1" id="&#xB808;&#xC774;&#xC5B4;_1" xmlns="http://www.w3.org/2000/svg" xmlns:xlink="http://www.w3.org/1999/xlink"
	 x="0px" y="0px" width="250px" height="250px" viewBox="0 0 250 250" style="enable-background:new 0 0 250 250;"
	 xml:space="preserve">
<g>
	<path style="fill:#282828;" d="M101.669,232.015l-0.125,1.375H50.419v-87.5h51.125v1.375H51.919v41h42.125v1.375H51.919v42.375
		H101.669z"/>
	<path style="fill:#282828;" d="M163.73,153.89c-0.125,0.25-0.334,0.375-0.625,0.375s-0.646-0.197-1.063-0.594
		c-0.416-0.396-0.959-0.896-1.625-1.5c-0.666-0.604-1.49-1.26-2.469-1.969c-0.979-0.708-2.156-1.364-3.531-1.969
		c-1.375-0.604-2.959-1.104-4.75-1.5c-1.791-0.396-3.854-0.594-6.188-0.594c-3.584,0-6.76,0.553-9.531,1.656
		c-2.771,1.104-5.094,2.573-6.969,4.406c-1.875,1.834-3.302,3.959-4.281,6.375c-0.979,2.417-1.469,4.938-1.469,7.563
		c0,3.375,0.656,6.188,1.969,8.438s3.031,4.146,5.156,5.688c2.125,1.542,4.563,2.823,7.313,3.844c2.75,1.021,5.541,2,8.375,2.938
		s5.625,1.928,8.375,2.969c2.75,1.042,5.188,2.365,7.313,3.969c2.125,1.604,3.844,3.584,5.156,5.938
		c1.313,2.354,1.969,5.303,1.969,8.844c0,3.584-0.604,6.928-1.813,10.031c-1.209,3.104-2.959,5.813-5.25,8.125
		s-5.104,4.136-8.438,5.469s-7.125,2-11.375,2c-2.959,0-5.604-0.261-7.938-0.781s-4.469-1.271-6.406-2.25
		c-1.938-0.979-3.719-2.166-5.344-3.563c-1.625-1.396-3.188-2.989-4.688-4.781l0.25-0.25c0.125-0.125,0.229-0.219,0.313-0.281
		c0.083-0.063,0.229-0.094,0.438-0.094c0.25,0,0.614,0.261,1.094,0.781c0.479,0.521,1.135,1.188,1.969,2
		c0.833,0.813,1.833,1.678,3,2.594c1.166,0.917,2.583,1.781,4.25,2.594c1.666,0.813,3.572,1.479,5.719,2
		c2.146,0.521,4.594,0.781,7.344,0.781c4.041,0,7.635-0.646,10.781-1.938c3.146-1.291,5.813-3.031,8-5.219s3.854-4.739,5-7.656
		c1.146-2.916,1.719-6.021,1.719-9.313c0-2.75-0.428-5.125-1.281-7.125s-2.01-3.719-3.469-5.156s-3.156-2.666-5.094-3.688
		c-1.938-1.021-4.01-1.938-6.219-2.75s-4.459-1.563-6.75-2.25s-4.541-1.447-6.75-2.281c-2.209-0.833-4.281-1.781-6.219-2.844
		s-3.635-2.354-5.093-3.875c-1.459-1.521-2.615-3.333-3.469-5.438c-0.854-2.104-1.281-4.594-1.281-7.469
		c0-2.791,0.521-5.469,1.563-8.031c1.041-2.563,2.563-4.822,4.563-6.781c2-1.958,4.468-3.521,7.406-4.688
		c2.938-1.166,6.303-1.75,10.094-1.75c4.25,0,8.01,0.688,11.281,2.063s6.344,3.563,9.219,6.563L163.73,153.89z"/>
	<path style="fill:#282828;" d="M197.668,181.14c-2.25,3.125-4.146,5.928-5.688,8.406c-1.543,2.479-2.771,4.865-3.688,7.156
		c1.082-2.25,2.479-4.26,4.188-6.031c1.707-1.771,3.645-3.281,5.813-4.531c2.166-1.25,4.488-2.208,6.969-2.875
		c2.479-0.666,5.031-1,7.656-1c3.957,0,7.541,0.646,10.75,1.938c3.207,1.292,5.938,3.084,8.188,5.375
		c2.25,2.292,3.988,5.021,5.219,8.188c1.229,3.167,1.844,6.625,1.844,10.375c0,3.917-0.688,7.479-2.063,10.688
		c-1.375,3.209-3.303,5.969-5.781,8.281c-2.48,2.313-5.428,4.104-8.844,5.375c-3.418,1.271-7.146,1.906-11.188,1.906
		c-3.834,0-7.344-0.615-10.531-1.844s-5.938-3.031-8.25-5.406s-4.115-5.291-5.406-8.75c-1.293-3.458-1.938-7.416-1.938-11.875
		c0-3.041,0.885-6.729,2.656-11.063c1.77-4.333,4.719-9.313,8.844-14.938l25.375-34.25c0.125-0.208,0.25-0.322,0.375-0.344
		c0.125-0.021,0.25-0.031,0.375-0.031h1.25L197.668,181.14z M211.043,233.14c4.125,0,7.822-0.625,11.094-1.875
		c3.27-1.25,6.031-2.989,8.281-5.219c2.25-2.229,3.979-4.875,5.188-7.938c1.207-3.063,1.813-6.385,1.813-9.969
		c0-3.791-0.594-7.208-1.781-10.25c-1.188-3.041-2.855-5.625-5-7.75c-2.146-2.125-4.719-3.76-7.719-4.906
		c-3-1.146-6.293-1.719-9.875-1.719c-4.25,0-8.031,0.74-11.344,2.219c-3.313,1.479-6.094,3.375-8.344,5.688
		s-3.969,4.886-5.156,7.719c-1.188,2.834-1.781,5.625-1.781,8.375c0,3.709,0.582,7.125,1.75,10.25
		c1.166,3.125,2.822,5.823,4.969,8.094c2.145,2.271,4.738,4.053,7.781,5.344C203.959,232.494,207.334,233.14,211.043,233.14z"/>
</g>
<rect x="5" y="5" style="fill:none;stroke:#ffeb3b ;stroke-width:2;stroke-miterlimit:10;" width="240" height="240"/>
</svg>
