<?xml version="1.0" encoding="iso-8859-1"?>
<!-- Generator: Adobe Illustrator 16.0.0, SVG Export Plug-In . SVG Version: 6.00 Build 0)  -->
<!DOCTYPE svg PUBLIC "-//W3C//DTD SVG 1.1//EN" "http://www.w3.org/Graphics/SVG/1.1/DTD/svg11.dtd">
<svg version="1.1" id="&#xB808;&#xC774;&#xC5B4;_1" xmlns="http://www.w3.org/2000/svg" xmlns:xlink="http://www.w3.org/1999/xlink"
	 x="0px" y="0px" width="250px" height="250px" viewBox="0 0 250 250" style="enable-background:new 0 0 250 250;"
	 xml:space="preserve">
<g>
	<path style="fill:#282828;" d="M101.669,232.016l-0.125,1.375H50.419v-87.5h51.125v1.375H51.919v41h42.125v1.375H51.919v42.375
		H101.669z"/>
	<path style="fill:#282828;" d="M163.73,153.891c-0.125,0.25-0.334,0.375-0.625,0.375s-0.646-0.197-1.063-0.595
		c-0.416-0.396-0.959-0.896-1.625-1.5s-1.49-1.26-2.469-1.969c-0.979-0.708-2.156-1.364-3.531-1.97
		c-1.375-0.604-2.959-1.104-4.75-1.5c-1.791-0.396-3.854-0.594-6.188-0.594c-3.584,0-6.76,0.553-9.531,1.656
		c-2.771,1.104-5.094,2.573-6.969,4.406c-1.875,1.834-3.302,3.959-4.281,6.375c-0.979,2.417-1.469,4.938-1.469,7.563
		c0,3.375,0.656,6.188,1.969,8.438s3.031,4.146,5.156,5.688c2.125,1.541,4.563,2.822,7.313,3.844c2.75,1.021,5.541,2,8.375,2.938
		s5.625,1.928,8.375,2.969c2.75,1.043,5.188,2.365,7.313,3.969c2.125,1.604,3.844,3.584,5.156,5.938s1.969,5.304,1.969,8.845
		c0,3.584-0.604,6.928-1.813,10.03c-1.209,3.104-2.959,5.813-5.25,8.125s-5.104,4.136-8.438,5.47c-3.334,1.332-7.125,2-11.375,2
		c-2.959,0-5.604-0.262-7.938-0.781c-2.334-0.521-4.469-1.271-6.406-2.25c-1.938-0.979-3.719-2.166-5.344-3.563
		c-1.625-1.396-3.188-2.989-4.688-4.78l0.25-0.25c0.125-0.125,0.229-0.22,0.313-0.281c0.083-0.063,0.229-0.094,0.438-0.094
		c0.25,0,0.614,0.26,1.094,0.78c0.479,0.521,1.135,1.188,1.969,2c0.833,0.813,1.833,1.679,3,2.595
		c1.166,0.916,2.583,1.78,4.25,2.594c1.666,0.813,3.571,1.479,5.719,2c2.146,0.521,4.595,0.781,7.345,0.781
		c4.041,0,7.635-0.646,10.78-1.938c3.146-1.291,5.813-3.031,8-5.22c2.187-2.188,3.854-4.738,5-7.655
		c1.146-2.916,1.72-6.021,1.72-9.313c0-2.75-0.429-5.125-1.281-7.125c-0.854-2-2.01-3.719-3.469-5.156
		c-1.459-1.437-3.156-2.666-5.095-3.688s-4.01-1.938-6.219-2.75s-4.459-1.563-6.75-2.25s-4.541-1.447-6.75-2.281
		c-2.209-0.832-4.281-1.781-6.219-2.844c-1.938-1.063-3.636-2.354-5.093-3.875c-1.459-1.521-2.615-3.333-3.469-5.438
		s-1.281-4.594-1.281-7.469c0-2.791,0.521-5.47,1.563-8.031c1.041-2.563,2.563-4.822,4.563-6.781c2-1.958,4.469-3.521,7.406-4.688
		c2.938-1.166,6.303-1.75,10.094-1.75c4.25,0,8.011,0.688,11.281,2.063c3.271,1.375,6.344,3.563,9.219,6.563L163.73,153.891z"/>
</g>
<rect x="5" y="5" style="fill:none;stroke:#d6ad43;stroke-width:2;stroke-miterlimit:10;" width="240" height="240"/>
<g>
	<path style="fill:#282828;" d="M216.938,187.813c2.833,0.459,5.552,1.229,8.156,2.313c2.604,1.084,4.896,2.573,6.875,4.469
		c1.979,1.896,3.563,4.209,4.75,6.938c1.188,2.729,1.781,5.928,1.781,9.594c0,3.625-0.678,6.886-2.031,9.781
		c-1.354,2.896-3.25,5.344-5.688,7.344s-5.334,3.542-8.688,4.625c-3.354,1.083-7.053,1.625-11.094,1.625
		c-4.042,0-7.74-0.542-11.094-1.625c-3.354-1.083-6.25-2.625-8.688-4.625s-4.334-4.447-5.688-7.344
		c-1.354-2.896-2.031-6.156-2.031-9.781c0-3.666,0.594-6.864,1.781-9.594c1.188-2.729,2.771-5.041,4.75-6.938
		c1.979-1.896,4.271-3.385,6.875-4.469c2.604-1.083,5.322-1.854,8.156-2.313c-2.917-0.541-5.511-1.458-7.781-2.75
		c-2.271-1.291-4.188-2.854-5.75-4.688c-1.563-1.833-2.75-3.906-3.563-6.219s-1.219-4.781-1.219-7.406c0-3,0.552-5.822,1.656-8.469
		c1.104-2.646,2.688-4.947,4.75-6.906c2.063-1.958,4.594-3.51,7.594-4.656c3-1.146,6.416-1.719,10.25-1.719
		c3.791,0,7.197,0.573,10.219,1.719c3.021,1.146,5.563,2.698,7.625,4.656c2.063,1.959,3.646,4.261,4.75,6.906
		c1.104,2.646,1.656,5.469,1.656,8.469c0,2.625-0.406,5.094-1.219,7.406s-2,4.386-3.563,6.219c-1.563,1.834-3.479,3.396-5.75,4.688
		C222.447,186.354,219.854,187.271,216.938,187.813z M211,233.25c3.791,0,7.271-0.521,10.438-1.563
		c3.166-1.041,5.906-2.521,8.219-4.438c2.313-1.916,4.114-4.239,5.406-6.969c1.291-2.729,1.938-5.781,1.938-9.156
		c0-3.041-0.406-5.708-1.219-8c-0.813-2.291-1.906-4.281-3.281-5.969s-2.948-3.083-4.719-4.188
		c-1.771-1.104-3.615-1.989-5.531-2.656c-1.917-0.666-3.854-1.135-5.813-1.406c-1.959-0.271-3.771-0.406-5.438-0.406
		c-1.709,0-3.531,0.136-5.469,0.406c-1.938,0.271-3.865,0.74-5.781,1.406c-1.917,0.667-3.761,1.553-5.531,2.656
		c-1.771,1.104-3.344,2.5-4.719,4.188s-2.469,3.678-3.281,5.969c-0.813,2.292-1.219,4.959-1.219,8c0,3.375,0.646,6.428,1.938,9.156
		c1.291,2.729,3.094,5.053,5.406,6.969c2.313,1.917,5.052,3.396,8.219,4.438C203.729,232.729,207.208,233.25,211,233.25z
		 M188.25,166.75c0,2.667,0.469,5.229,1.406,7.688c0.938,2.459,2.354,4.636,4.25,6.531c1.896,1.896,4.26,3.417,7.094,4.563
		c2.833,1.146,6.166,1.719,10,1.719c3.791,0,7.114-0.572,9.969-1.719c2.854-1.146,5.229-2.666,7.125-4.563
		c1.896-1.896,3.313-4.072,4.25-6.531c0.938-2.458,1.406-5.021,1.406-7.688c0-2.916-0.521-5.635-1.563-8.156
		c-1.042-2.521-2.542-4.688-4.5-6.5c-1.959-1.813-4.344-3.239-7.156-4.281c-2.813-1.041-5.99-1.563-9.531-1.563
		c-3.542,0-6.719,0.521-9.531,1.563c-2.813,1.042-5.198,2.469-7.156,4.281c-1.959,1.813-3.459,3.979-4.5,6.5
		C188.771,161.115,188.25,163.834,188.25,166.75z"/>
</g>
</svg>
