<?xml version="1.0" encoding="utf-8"?>
<svg version="1.1" xmlns="http://www.w3.org/2000/svg" xmlns:xlink="http://www.w3.org/1999/xlink" x="0px" y="0px" width="250px"
	 height="250px" viewBox="0 0 250 250" enable-background="new 0 0 250 250" xml:space="preserve">
	<path fill="none" stroke="#8CC84B" stroke-miterlimit="10" d="M86.833,78.657v107.177c0,0-0.667,28.666-27.333,19.333
		l-33.333-18.666c0,0-6.667-3.135-5.333-9.567l-0.176-103.1c0,0-1.157-6,8.843-13.333l88.667-50c0,0,6.666-4.667,13.333,0
		l92.667,50.667c0,0,5.333,2.666,5.333,11.333l1.334,104.433c0,0-2,8.899-6.667,10.233l-94,52.667c0,0-7.333,3.333-11.333,0l-26-16"/>

	<path fill-rule="evenodd" clip-rule="evenodd" fill="none" stroke="#8CC84B" stroke-width="1" stroke-linecap="round" stroke-linejoin="round" stroke-miterlimit="10" d="
	M188.243,101.869c-1.887-6.945-6.422-11.447-12.953-14.173c-4.361-1.82-8.887-2.872-13.561-3.504
	c-3.398-0.46-6.804-0.523-10.205-0.531c-6.866-0.015-13.624,0.899-20.154,3.104c-3.352,1.131-6.461,2.693-9.151,5.114
	c-3.121,2.809-4.985,6.063-5.172,10.348c-0.176,4.039,0.585,7.639,3.252,10.823c2.441,2.914,5.51,4.901,8.922,6.3
	c5.85,2.398,12.015,3.73,18.224,4.841c2.843,0.508,5.673,1.085,8.522,1.546c3.843,0.622,7.702,1.144,11.519,1.929
	c5.545,1.141,10.964,2.676,15.951,5.418c4.573,2.516,7.694,6.263,8.492,11.511c0.95,6.243-0.229,11.84-5.338,16.225
	c-3.823,3.281-8.24,5.237-12.991,6.552c-5.447,1.506-11.042,2.108-16.675,2.424c-7.051,0.395-13.992-0.215-20.756-2.298
	c-6.587-2.029-12.459-5.294-17.027-10.563c-2.866-3.305-4.579-7.215-5.444-11.523"/>
</svg>
