<svg viewBox="0 400 1920 745" fill="none" xmlns="http://www.w3.org/2000/svg">
<path d="M297.904 780.266L360.817 843.179L1835.03 966.923L1768.39 718.217L297.904 780.266Z" fill="#181818" stroke="#181818"/>
<path d="M2100.63 1118.99L1987.12 708.988L1768.39 718.217L1835.03 966.923L360.817 843.179L636.625 1118.99L2100.63 1118.99Z" fill="#181818" stroke="#181818"/>
<path d="M1685.4 408.488L297.904 780.266L1768.39 718.217L1685.4 408.488Z" fill="#202020" stroke="#202020"/>
<path d="M134.125 824.151L297.904 780.266L0.125002 482.488L0.124994 1118.99L636.625 1118.99L360.817 843.179L134.125 824.151Z" fill="#25D7C3" stroke="#25D7C3"/>
<path d="M297.904 780.266L134.125 824.151L360.817 843.179L297.904 780.266Z" fill="#25D7C3" stroke="#25D7C3"/>
<path d="M-3.875 943.988L1919.62 1090.99V1178.5H-3.875V943.988Z" fill="#23B8A7" stroke="#23B8A7"/>
</svg>
