<svg xmlns="http://www.w3.org/2000/svg" xmlns:xlink="http://www.w3.org/1999/xlink" version="1.1"
	viewBox="72 -5 50 50" xml:space="preserve" width="250" height="250">

	<style type="text/css">
		.st0 {
			fill: none;
			stroke: #F05732;
			stroke-width: .3;
		}

		.st1 {
			fill: none;
			stroke: #9E529F;
			stroke-width: .3;
		}
	</style>
	<path class="st0" d="M102.7,12.2c-1.3-1-1.8,3.9-4.4,3.9
		c-3,0-4-13-6.3-13c-0.7,0-0.8-0.4-7.9,21.3c-2.9,9,4.4,15.8,11.8,15.8 c4.6,0,12.3-3,12.3-12.6
		C108.2,20.5,104.7,13.7,102.7,12.2z M95.8,35.3c-3.7,0-6.7-3.1-6.7-7c0-3.9,3-7,6.7-7s6.7,3.1,6.7,7
		C102.5,32.1,99.5,35.3,95.8,35.3z"/>

	<path class="st1" d="M99.8,0c-0.5,0-1.8,2.5-1.8,3.6c0,1.5,1,2,1.8,2
		c0.8,0,1.8-0.5,1.8-2C101.5,2.5,100.2,0,99.8,0z"/>

</svg>
