<?xml version="1.0" encoding="iso-8859-1"?>
<!-- Generator: Adobe Illustrator 16.0.0, SVG Export Plug-In . SVG Version: 6.00 Build 0)  -->
<!DOCTYPE svg PUBLIC "-//W3C//DTD SVG 1.1//EN" "http://www.w3.org/Graphics/SVG/1.1/DTD/svg11.dtd">
<svg version="1.1" id="&#xB808;&#xC774;&#xC5B4;_1" xmlns="http://www.w3.org/2000/svg" xmlns:xlink="http://www.w3.org/1999/xlink"
	 x="0px" y="0px" width="250px" height="250px" viewBox="0 0 250 250" style="enable-background:new 0 0 250 250; stroke-width:1px;"
	 xml:space="preserve">
<g id="&#xB808;&#xC774;&#xC5B4;_2">
	<circle style="fill:none;stroke:#00c0a0;stroke-miterlimit:10;" cx="50" cy="156" r="19.22"/>
	<circle style="fill:none;stroke:#00c0a0;stroke-miterlimit:10;" cx="50" cy="94" r="19.22"/>
</g>
<g id="&#xB808;&#xC774;&#xC5B4;_3">
	<circle style="fill:none;stroke:#00c0a0;stroke-miterlimit:10;" cx="125" cy="125" r="19.22"/>
	<circle style="fill:none;stroke:#00c0a0;stroke-miterlimit:10;" cx="125" cy="63" r="19.22"/>
	<circle style="fill:none;stroke:#00c0a0;stroke-miterlimit:10;" cx="125" cy="187" r="19.22"/>
</g>
<g id="&#xB808;&#xC774;&#xC5B4;_4">
	<circle style="fill:none;stroke:#00c0a0;stroke-miterlimit:10;" cx="200" cy="156" r="19.22"/>
	<circle style="fill:none;stroke:#00c0a0;stroke-miterlimit:10;" cx="200" cy="94" r="19.22"/>
	<line style="fill:none;stroke:#00c0a0;stroke-miterlimit:10;" x1="69.22" y1="94" x2="105.78" y2="63"/>
	<line style="fill:none;stroke:#00c0a0;stroke-miterlimit:10;" x1="69.22" y1="94" x2="105.78" y2="125"/>
	<line style="fill:none;stroke:#00c0a0;stroke-miterlimit:10;" x1="69.22" y1="94" x2="105.78" y2="187"/>
	<line style="fill:none;stroke:#00c0a0;stroke-miterlimit:10;" x1="69.22" y1="156" x2="105.78" y2="63"/>
	<line style="fill:none;stroke:#00c0a0;stroke-miterlimit:10;" x1="69.22" y1="156" x2="105.78" y2="125"/>
	<line style="fill:none;stroke:#00c0a0;stroke-miterlimit:10;" x1="69.22" y1="156" x2="105.78" y2="187"/>
	<line style="fill:none;stroke:#00c0a0;stroke-miterlimit:10;" x1="144.22" y1="187" x2="180.78" y2="94"/>
	<line style="fill:none;stroke:#00c0a0;stroke-miterlimit:10;" x1="144.22" y1="125" x2="180.78" y2="94"/>
	<line style="fill:none;stroke:#00c0a0;stroke-miterlimit:10;" x1="144.22" y1="63" x2="180.78" y2="94"/>
	<line style="fill:none;stroke:#00c0a0;stroke-miterlimit:10;" x1="144.22" y1="63" x2="180.78" y2="156"/>
	<line style="fill:none;stroke:#00c0a0;stroke-miterlimit:10;" x1="144.22" y1="125" x2="180.78" y2="156"/>
	<line style="fill:none;stroke:#00c0a0;stroke-miterlimit:10;" x1="144.22" y1="187" x2="180.78" y2="156"/>
</g>
</svg>
