<svg xmlns:dc="http://purl.org/dc/elements/1.1/" xmlns:cc="http://creativecommons.org/ns#" xmlns:rdf="http://www.w3.org/1999/02/22-rdf-syntax-ns#" xmlns:svg="http://www.w3.org/2000/svg" xmlns="http://www.w3.org/2000/svg" xmlns:sodipodi="http://sodipodi.sourceforge.net/DTD/sodipodi-0.dtd" xmlns:inkscape="http://www.inkscape.org/namespaces/inkscape" version="1.1" x="0px" y="0px" viewBox="0 0 100 100">
	<path fill="#fff" d="M 7.8125 17 A 1.0001 1.0001 0 0 0 7 18 L 7 66 A 1.0001 1.0001 0 1 0 9 66 L 9 19 L 92 19 A 1.0001 1.0001 0 1 0 92 17 L 8 17 A 1.0001 1.0001 0 0 0 7.8125 17 z M 91.875 22.96875 A 1.0001 1.0001 0 0 0 91 24 L 91 71 L 32 71 A 1.0001 1.0001 0 0 0 31.40625 71.1875 L 19 80.0625 L 19 72 A 1.0001 1.0001 0 0 0 18 71 L 8 71 A 1.0001 1.0001 0 1 0 8 73 L 17 73 L 17 82 A 1.0001 1.0001 0 0 0 18.59375 82.8125 L 32.34375 73 L 92 73 A 1.0001 1.0001 0 0 0 93 72 L 93 24 A 1.0001 1.0001 0 0 0 91.875 22.96875 z M 36.90625 29.96875 A 1.0001 1.0001 0 0 0 36.375 31.75 L 41.46875 36 L 36.375 40.21875 A 1.0001 1.0001 0 1 0 37.625 41.75 L 43.625 36.75 A 1.0001 1.0001 0 0 0 43.625 35.21875 L 37.625 30.21875 A 1.0001 1.0001 0 0 0 36.90625 29.96875 z M 62.96875 29.96875 A 1.0001 1.0001 0 0 0 62.375 30.21875 L 56.375 35.21875 A 1.0001 1.0001 0 0 0 56.375 36.75 L 62.375 41.75 A 1.0001 1.0001 0 1 0 63.625 40.21875 L 58.53125 36 L 63.625 31.75 A 1.0001 1.0001 0 0 0 62.96875 29.96875 z M 50 50 C 44.477786 50 39.437096 52.43035 36.21875 56.34375 A 1.0103068 1.0103068 0 1 0 37.78125 57.625 C 40.6093 54.1862 45.070722 52 50 52 C 54.929278 52 59.3907 54.1862 62.21875 57.625 A 1.0103068 1.0103068 0 0 0 63.78125 56.34375 C 60.562904 52.43035 55.522214 50 50 50 z"/>
</svg>
