<?xml version="1.0" encoding="iso-8859-1"?>
<!-- Generator: Adobe Illustrator 16.0.0, SVG Export Plug-In . SVG Version: 6.00 Build 0)  -->
<!DOCTYPE svg PUBLIC "-//W3C//DTD SVG 1.1//EN" "http://www.w3.org/Graphics/SVG/1.1/DTD/svg11.dtd">
<svg version="1.1" id="&#xB808;&#xC774;&#xC5B4;_1" xmlns="http://www.w3.org/2000/svg" xmlns:xlink="http://www.w3.org/1999/xlink"
	 x="0px" y="0px" width="250px" height="250px" viewBox="0 0 300 300" style="enable-background:new 0 0 300 300;"
	 xml:space="preserve">
<g>

		<path style="fill-rule:evenodd;clip-rule:evenodd;fill:none;stroke:#32B9D8;stroke-width:2;stroke-linecap:round;stroke-linejoin:round;stroke-miterlimit:10;" d="
		M170.729,53.137c7.389,5.894,12.723,13.434,17.209,21.678c4.086,7.507,7.172,15.4,9.688,23.537
		c2.381,7.704,4.143,15.55,5.436,23.513c0.627,3.873,1.168,7.758,1.602,11.65c0.266,2.381,0.385,4.796,0.57,7.191
		c0.482,6.197,0.604,12.397,0.543,18.603c-0.035,3.682-0.09,7.371-0.371,11.039c-0.738,9.635-1.869,19.225-3.932,28.682
		c-1.109,5.096-2.287,10.172-3.953,15.123"/>

		<path style="fill-rule:evenodd;clip-rule:evenodd;fill:none;stroke:#32B9D8;stroke-width:2;stroke-linecap:round;stroke-linejoin:round;stroke-miterlimit:10;" d="
		M76.166,167.973c4.268,4.426,8.688,8.676,13.326,12.717c7.55,6.578,15.6,12.463,24.021,17.855
		c4.381,2.807,8.868,5.432,13.429,7.939c8.334,4.582,16.948,8.555,25.814,11.971c8.438,3.25,17.078,5.871,25.916,7.811
		c4.441,0.975,8.93,1.719,13.443,2.246c2.461,0.289,4.955,0.396,7.43,0.582c2.73,0.203,5.457,0.271,8.164,0.139
		c8.723-0.428,17.299-1.598,25.215-5.697c1.207-0.627,2.201-1.469,3.227-2.307"/>

		<path style="fill-rule:evenodd;clip-rule:evenodd;fill:none;stroke:#32B9D8;stroke-width:2;stroke-linecap:round;stroke-linejoin:round;stroke-miterlimit:10;" d="
		M179.631,85.75c-3.139,0.468-6.184,1.35-9.238,2.167c-7.863,2.104-15.514,4.829-23.044,7.908
		c-4.677,1.913-9.288,3.993-13.778,6.285c-13.363,6.821-26.06,14.737-37.806,24.099c-7.539,6.01-14.655,12.505-21.125,19.67
		c-6.047,6.698-11.517,13.847-15.948,21.724c-3.703,6.58-6.644,13.477-7.955,20.986c-0.515,2.947-0.763,5.895-0.597,8.883"/>

		<path style="fill-rule:evenodd;clip-rule:evenodd;fill:none;stroke:#32B9D8;stroke-width:2;stroke-linecap:round;stroke-linejoin:round;stroke-miterlimit:10;" d="
		M112.189,83.955c-4.028-0.48-8.046-1.024-12.118-1.13c-1.917-0.05-3.84-0.253-5.761-0.184c-8.125,0.29-16.136,1.193-23.766,4.296
		c-6.755,2.748-12.442,6.804-16.299,13.102c-2.425,3.959-3.697,8.289-4.138,12.946c-0.65,6.89,0.813,13.401,3.062,19.797
		c1.409,4.011,3.223,7.857,5.397,11.517"/>

		<path style="fill-rule:evenodd;clip-rule:evenodd;fill:none;stroke:#32B9D8;stroke-width:2;stroke-linecap:round;stroke-linejoin:round;stroke-miterlimit:10;" d="
		M230.311,161.145c4.004-4.805,7.613-9.881,10.746-15.283c4.025-6.943,7.262-14.207,8.664-22.19
		c1.131-6.441,1.029-12.787-1.342-18.957c-2.502-6.519-7.027-11.33-12.951-14.878c-6.43-3.85-13.537-5.584-20.879-6.466
		c-3.898-0.468-7.828-0.61-11.758-0.5"/>

		<path style="fill-rule:evenodd;clip-rule:evenodd;fill:none;stroke:#32B9D8;stroke-width:2;stroke-linecap:round;stroke-linejoin:round;stroke-miterlimit:10;" d="
		M105.11,220.629c0.975,3.033,2.192,5.973,3.488,8.877c2.325,5.211,4.978,10.246,8.143,15.01
		c4.644,6.984,10.08,13.203,17.307,17.605c4.14,2.52,8.605,4.293,13.541,4.605c0.944,0.059,5.632,0.1,7.079-0.152
		c5.857-1.027,11.055-3.531,15.723-7.184c6.15-4.811,10.859-10.859,15.004-17.398"/>
</g>
<circle style="fill-rule:evenodd;clip-rule:evenodd;fill:none;stroke:#32B9D8;stroke-width:2;stroke-linecap:round;stroke-linejoin:round;stroke-miterlimit:10;" cx="53" cy="210.479" r="12.25"/>
<circle style="fill-rule:evenodd;clip-rule:evenodd;fill:none;stroke:#32B9D8;stroke-width:2;stroke-linecap:round;stroke-linejoin:round;stroke-miterlimit:10;" cx="161" cy="45.478" r="12.25"/>
<circle style="fill-rule:evenodd;clip-rule:evenodd;fill:none;stroke:#32B9D8;stroke-width:2;stroke-linecap:round;stroke-linejoin:round;stroke-miterlimit:10;" cx="247" cy="213.479" r="12.25"/>
<circle style="fill-rule:evenodd;clip-rule:evenodd;fill:#32B9D8;" cx="150" cy="150" r="12.25"/>
</svg>
