<?xml version="1.0" standalone="no"?>
<!DOCTYPE svg PUBLIC "-//W3C//DTD SVG 1.1//EN" "http://www.w3.org/Graphics/SVG/1.1/DTD/svg11.dtd" >
<svg xmlns="http://www.w3.org/2000/svg" xmlns:xlink="http://www.w3.org/1999/xlink" version="1.1">
<metadata>
Created by FontForge 20170731 at Tue Jan  2 00:39:21 2018
 By ,,,
Typeface Khinenw. 2018. All Rights Reserved
</metadata>
<defs>
<font id="NenwSiteFiraCode" horiz-adv-x="1228" >
  <font-face 
    font-family="NenwSiteFiraCode"
    font-weight="400"
    font-stretch="normal"
    units-per-em="2048"
    panose-1="2 0 0 0 0 0 0 0 0 0"
    ascent="1638"
    descent="-410"
    x-height="1102"
    bbox="10 -434 1280 1720"
    underline-thickness="150"
    underline-position="-442"
    unicode-range="U+0020-007C"
  />
<missing-glyph horiz-adv-x="1536" 
d="M256 0v1280h1024v-1280h-1024zM288 32h960v1216h-960v-1216z" />
    <glyph glyph-name=".notdef" horiz-adv-x="1536" 
d="M256 0v1280h1024v-1280h-1024zM288 32h960v1216h-960v-1216z" />
    <glyph glyph-name=".null" horiz-adv-x="0" 
 />
    <glyph glyph-name="nonmarkingreturn" horiz-adv-x="569" 
 />
    <glyph glyph-name="space" unicode=" " horiz-adv-x="569" 
 />
    <glyph glyph-name="space" unicode="&#xa0;" horiz-adv-x="569" 
 />
    <glyph glyph-name="exclam" unicode="!" 
d="M688 465h-154l-20 946h192zM710.5 212q38.5 -40 38.5 -97q0 -60 -38.5 -98.5t-98.5 -38.5q-57 0 -97 39.5t-40 97.5q0 57 40 97t97 40q60 0 98.5 -40z" />
    <glyph glyph-name="quotedbl" unicode="&#x22;" 
d="M335 1513h215l-33 -532h-151zM677 1513h215l-31 -532h-151z" />
    <glyph glyph-name="parenleft" unicode="(" 
d="M483 353.5q47 -154.5 140.5 -280.5t248.5 -265l-88 -94q-180 145 -293.5 286t-174 315t-60.5 402q0 227 60.5 401t174 315.5t293.5 286.5l88 -94q-157 -139 -250.5 -264t-139.5 -279.5t-46 -365.5q0 -209 47 -363.5z" />
    <glyph glyph-name="parenright" unicode=")" 
d="M746 1082.5q-46 154.5 -139 279.5t-251 264l88 94q180 -145 294 -286.5t174 -315.5t60 -401q0 -228 -60 -402t-174 -315t-294 -286l-88 94q156 139 249 265t140 280.5t47 363.5q0 211 -46 365.5z" />
    <glyph glyph-name="comma" unicode="," 
d="M731 290q48 -48 48 -116q0 -76 -38 -162l-166 -378h-156l96 403q-28 22 -46.5 59t-18.5 76q0 70 47 118t117 48q69 0 117 -48z" />
    <glyph glyph-name="period" unicode="." 
d="M484 285.5q52 52.5 128 52.5q78 0 129 -52.5t51 -127.5q0 -78 -51 -129t-129 -51q-76 0 -128 52t-52 128q0 75 52 127.5z" />
    <glyph glyph-name="one" unicode="1" 
d="M1058 139v-139h-813v139h346v1084l-321 -195l-76 121l420 262h151v-1272h293z" />
    <glyph glyph-name="semicolon" unicode=";" 
d="M730 998.5q47 -48.5 47 -115.5q0 -70 -47 -119t-118 -49q-70 0 -117 49t-47 119q0 67 47 115.5t117 48.5q71 0 118 -48.5zM729 292q48 -48 48 -118q0 -74 -38 -162l-168 -380h-156l98 405q-30 22 -47.5 59t-17.5 78q0 70 47 118t117 48q69 0 117 -48z" />
    <glyph glyph-name="semicolon" unicode="&#x37e;" 
d="M730 998.5q47 -48.5 47 -115.5q0 -70 -47 -119t-118 -49q-70 0 -117 49t-47 119q0 67 47 115.5t117 48.5q71 0 118 -48.5zM729 292q48 -48 48 -118q0 -74 -38 -162l-168 -380h-156l98 405q-30 22 -47.5 59t-17.5 78q0 70 47 118t117 48q69 0 117 -48z" />
    <glyph glyph-name="H" unicode="H" 
d="M880 670h-533v-670h-178v1411h178v-596h533v596h178v-1411h-178v670z" />
    <glyph glyph-name="W" unicode="W" 
d="M1005 0h-233l-162 1065l-164 -1065h-239l-197 1411h178l150 -1216l170 1052h217l162 -1052l167 1216h164z" />
    <glyph glyph-name="c" unicode="c" 
d="M974 219l82 -113q-67 -59 -167.5 -93.5t-194.5 -34.5q-240 0 -374 150.5t-134 406.5q0 161 60.5 290t175 203t272.5 74q209 0 360 -127l-84 -113q-141 94 -278 94q-146 0 -233 -107.5t-87 -313.5q0 -207 87 -308.5t235 -101.5q141 0 280 94z" />
    <glyph glyph-name="d" unicode="d" 
d="M1024 1513v-1513h-152l-16 141q-60 -82 -137.5 -122.5t-167.5 -40.5q-205 0 -308.5 149t-103.5 412q0 161 51 289t146.5 201t224.5 73q178 0 291 -129v561zM398 856.5q-73 -106.5 -73 -317.5q0 -209 66.5 -316.5t193.5 -107.5q154 0 267 172v536q-45 68 -108.5 104
t-137.5 36q-135 0 -208 -106.5z" />
    <glyph glyph-name="e" unicode="e" 
d="M434 211q87 -90 221 -90q79 0 146 23.5t142 72.5l80 -115q-76 -59 -173 -91.5t-195 -32.5q-234 0 -364 152.5t-130 408.5q0 161 57.5 289t164 201t247.5 73q205 0 322.5 -142.5t117.5 -388.5q0 -47 -4 -92h-725q6 -178 93 -268zM429 871.5q-78 -89.5 -88 -261.5h561
q-2 170 -73.5 260.5t-196.5 90.5t-203 -89.5z" />
    <glyph glyph-name="g" unicode="g" 
d="M1134 1030q-61 -20 -132.5 -25.5t-182.5 -5.5q188 -86 188 -272q0 -164 -108.5 -265.5t-296.5 -101.5q-96 0 -162 23q-24 -18 -39.5 -47t-15.5 -57q0 -93 143 -93h195q106 0 193 -37.5t137.5 -105t50.5 -149.5q0 -158 -134.5 -243t-379.5 -85q-250 0 -352.5 78
t-102.5 248h156q0 -68 25.5 -108t90 -59t183.5 -19q174 0 257 45t83 133q0 73 -68 113t-174 40h-193q-133 0 -202.5 58.5t-69.5 146.5q0 51 31 101t88 87q-92 47 -136 120t-44 177q0 109 54 194t151.5 133t224.5 48q184 0 280.5 20.5t210.5 69.5zM401.5 908.5
q-63.5 -66.5 -63.5 -181.5t64.5 -183.5t191.5 -68.5q114 0 174.5 66.5t60.5 187.5q0 246 -239 246q-125 0 -188.5 -66.5z" />
    <glyph glyph-name="l" unicode="l" 
d="M626 266q0 -145 178 -145q84 0 180 37l45 -125q-102 -55 -256 -55q-145 0 -232 79.5t-87 216.5v1102h-332v137h504v-1247z" />
    <glyph glyph-name="n" unicode="n" 
d="M204 1079h147l15 -151q63 82 160.5 128t195.5 46q303 0 303 -320v-782h-172v655q0 121 -13 184.5t-52 94.5t-119 31q-88 0 -166 -53.5t-127 -127.5v-784h-172v1079z" />
    <glyph glyph-name="o" unicode="o" 
d="M959 951.5q120 -150.5 120 -410.5q0 -254 -122 -408.5t-343 -154.5q-223 0 -344 150.5t-121 410.5q0 256 122 409.5t345 153.5t343 -150.5zM405 856.5q-70 -104.5 -70 -317.5t69 -316.5t210 -103.5t209.5 103.5t68.5 318.5q0 213 -68.5 316.5t-207.5 103.5
q-141 0 -211 -104.5z" />
    <glyph glyph-name="r" unicode="r" 
d="M1085 1079l-24 -366h-139v231h-11q-250 0 -354 -356v-455h219v-133h-561v133h170v813h-170v133h299l33 -256q65 140 156.5 209.5t230.5 69.5q65 0 151 -23z" />
    <glyph glyph-name="s" unicode="s" 
d="M767.5 166q71.5 47 71.5 125q0 53 -18.5 87t-73.5 61.5t-168 56.5q-188 47 -278.5 113.5t-90.5 197.5q0 135 113 215t297 80q225 0 393 -119l-78 -119q-67 47 -141 73t-170 26q-233 0 -233 -142q0 -49 25.5 -79.5t84 -54t174.5 -56.5q176 -47 263 -120t87 -212
q0 -162 -131 -241.5t-321 -79.5q-254 0 -422 145l96 113q66 -54 150 -85.5t176 -31.5q123 0 194.5 47z" />
    <glyph glyph-name="bar" unicode="|" 
d="M690 -208h-154v1861h154v-1861z" />
  </font>
</defs>
</svg>
