<?xml version="1.0" encoding="utf-8"?>
<svg version="1.1" id="레이어_1" xmlns="http://www.w3.org/2000/svg" xmlns:xlink="http://www.w3.org/1999/xlink" x="0px"
	 y="0px" width="250px" height="250px" viewBox="0 0 250 250" enable-background="new 0 0 250 250" xml:space="preserve">
<g>
	<path fill="none" stroke="#2196F3" d="M164.804,85.333c3.544,1.363,7.36,2.999,10.632,4.907
		c19.357,11.178,30.262,31.08,30.808,51.799c5.452-27.263-3.271-55.616-23.173-74.973"/>
	<path fill="none" stroke="#2196F3" d="M99.1,47.71c-32.715,10.905-56.161,41.712-56.161,78.244c0,12.541,2.726,24.265,7.634,34.896
		l44.711-10.36c-15.54-11.178-25.9-29.443-25.9-50.163C69.656,77.972,81.379,58.615,99.1,47.71z"/>
	<path fill="none" stroke="#2196F3" d="M131.271,187.023c-19.356,11.178-41.985,10.632-60.251,0.817
		c25.627,22.628,64.068,27.535,95.692,9.27c10.905-6.271,19.63-14.449,26.445-24.265l-31.353-33.26
		C159.896,158.67,149.264,176.663,131.271,187.023z"/>
	<path fill="none" stroke="#2196F3" d="M183.07,67.066c-4.908-4.635-10.36-8.997-16.358-12.541
		c-10.905-6.27-22.355-9.814-34.078-10.632l-13.359,43.893c14.176-6.543,30.534-7.361,45.529-2.181"/>
	<path fill="none" stroke="#2196F3" d="M45.665,204.198L125,250l108.233-62.432V62.432l-28.898-16.63L125,0L16.767,62.432v125.137
		L45.665,204.198"/>
</g>
<path fill="none" stroke="#2196F3" d="M123.009,1.148"/>
</svg>
