<?xml version="1.0" encoding="iso-8859-1"?>
<!-- Generator: Adobe Illustrator 16.0.0, SVG Export Plug-In . SVG Version: 6.00 Build 0)  -->
<!DOCTYPE svg PUBLIC "-//W3C//DTD SVG 1.1//EN" "http://www.w3.org/Graphics/SVG/1.1/DTD/svg11.dtd">
<svg version="1.1" id="&#xB808;&#xC774;&#xC5B4;_1" xmlns="http://www.w3.org/2000/svg" xmlns:xlink="http://www.w3.org/1999/xlink"
	 x="0px" y="0px" width="250px" height="250px" viewBox="0 0 250 250" style="enable-background:new 0 0 250 250;"
	 xml:space="preserve">
<g>
	<path style="fill:#003371;" d="M59.011,90.549v72h-1.2v-72H59.011z"/>
	<path style="fill:#003371;" d="M113.51,156.75c-0.567,0.699-1.409,1.424-2.525,2.174c-1.117,0.75-2.434,1.443-3.95,2.076
		s-3.175,1.149-4.975,1.549c-1.8,0.4-3.65,0.601-5.55,0.601c-3.367,0-6.384-0.593-9.05-1.774c-2.667-1.184-4.925-2.893-6.775-5.125
		c-1.85-2.233-3.275-4.967-4.275-8.201c-1-3.232-1.5-6.899-1.5-11c0-3.6,0.483-6.891,1.45-9.875c0.967-2.982,2.367-5.541,4.2-7.674
		c1.833-2.133,4.075-3.792,6.725-4.975c2.65-1.183,5.658-1.775,9.025-1.775c2.566,0,4.982,0.458,7.25,1.375
		c2.267,0.917,4.241,2.275,5.925,4.075c1.683,1.8,3.008,4.009,3.976,6.625c0.966,2.617,1.449,5.625,1.449,9.025
		c0,0.167-0.059,0.292-0.175,0.375c-0.117,0.084-0.259,0.125-0.425,0.125h-38.1c-0.034,0.467-0.059,0.917-0.075,1.35
		c-0.018,0.434-0.025,0.884-0.025,1.35c0,4.068,0.483,7.659,1.45,10.775c0.966,3.117,2.341,5.734,4.125,7.85
		c1.783,2.117,3.933,3.726,6.45,4.826c2.517,1.1,5.308,1.649,8.375,1.649c2.732,0,5.1-0.3,7.1-0.899c2-0.601,3.667-1.268,5-2
		c1.333-0.733,2.351-1.4,3.05-2c0.7-0.601,1.117-0.9,1.25-0.9s0.267,0.066,0.4,0.199L113.51,156.75z M113.81,133.449
		c0-3.166-0.45-5.975-1.35-8.425c-0.9-2.45-2.143-4.508-3.726-6.175c-1.583-1.666-3.442-2.933-5.575-3.8
		c-2.133-0.866-4.417-1.3-6.85-1.3c-2.934,0-5.575,0.467-7.925,1.4c-2.351,0.934-4.375,2.267-6.075,4
		c-1.7,1.733-3.059,3.809-4.075,6.225c-1.017,2.417-1.675,5.108-1.975,8.075H113.81z"/>
	<path style="fill:#003371;" d="M155.009,117.849c-0.1,0.2-0.268,0.3-0.5,0.3c-0.268,0-0.658-0.225-1.176-0.675
		c-0.516-0.45-1.266-0.95-2.25-1.5c-0.982-0.55-2.225-1.058-3.725-1.525c-1.5-0.466-3.35-0.7-5.549-0.7
		c-2.068,0-3.959,0.317-5.676,0.95c-1.717,0.634-3.191,1.475-4.426,2.525c-1.232,1.05-2.191,2.259-2.875,3.625
		c-0.684,1.367-1.023,2.8-1.023,4.3c0,1.767,0.416,3.242,1.25,4.425c0.832,1.184,1.924,2.184,3.273,3
		c1.352,0.817,2.893,1.509,4.625,2.075c1.734,0.567,3.5,1.125,5.301,1.675c1.801,0.551,3.566,1.134,5.301,1.75
		c1.732,0.617,3.273,1.393,4.625,2.325c1.35,0.934,2.441,2.075,3.273,3.425c0.834,1.35,1.25,3.025,1.25,5.025
		s-0.357,3.883-1.074,5.65c-0.717,1.767-1.758,3.299-3.125,4.6c-1.367,1.3-3.043,2.334-5.025,3.1
		c-1.982,0.767-4.242,1.15-6.775,1.15c-1.766,0-3.35-0.143-4.75-0.426c-1.398-0.283-2.684-0.674-3.85-1.174
		s-2.268-1.117-3.299-1.851c-1.035-0.733-2.051-1.55-3.05-2.45l0.3-0.3c0.1-0.101,0.182-0.175,0.25-0.226
		c0.066-0.049,0.182-0.074,0.35-0.074c0.266,0,0.699,0.283,1.299,0.85c0.602,0.567,1.441,1.2,2.525,1.9
		c1.084,0.699,2.459,1.334,4.125,1.9s3.701,0.85,6.1,0.85c2.4,0,4.525-0.35,6.375-1.051c1.852-0.699,3.408-1.657,4.676-2.875
		c1.266-1.216,2.225-2.633,2.875-4.25c0.65-1.615,0.975-3.357,0.975-5.225c0-1.9-0.416-3.475-1.25-4.725s-1.924-2.309-3.275-3.176
		c-1.35-0.865-2.891-1.591-4.625-2.174c-1.732-0.584-3.5-1.143-5.299-1.676c-1.801-0.533-3.568-1.1-5.301-1.699
		c-1.732-0.601-3.275-1.342-4.625-2.226c-1.35-0.883-2.441-1.976-3.275-3.274c-0.832-1.301-1.25-2.917-1.25-4.851
		c0-1.633,0.367-3.191,1.102-4.675c0.732-1.482,1.766-2.8,3.1-3.95c1.332-1.15,2.924-2.066,4.775-2.75
		c1.85-0.683,3.891-1.025,6.125-1.025c2.766,0,5.199,0.375,7.299,1.125s4.133,1.975,6.1,3.675L155.009,117.849z"/>
	<path style="fill:#003371;" d="M196.858,117.849c-0.102,0.2-0.268,0.3-0.5,0.3c-0.268,0-0.66-0.225-1.176-0.675
		c-0.518-0.45-1.268-0.95-2.25-1.5c-0.984-0.55-2.225-1.058-3.725-1.525c-1.5-0.466-3.35-0.7-5.551-0.7
		c-2.066,0-3.959,0.317-5.674,0.95c-1.719,0.634-3.193,1.475-4.426,2.525c-1.234,1.05-2.191,2.259-2.875,3.625
		c-0.684,1.367-1.025,2.8-1.025,4.3c0,1.767,0.416,3.242,1.25,4.425c0.834,1.184,1.926,2.184,3.275,3
		c1.35,0.817,2.891,1.509,4.625,2.075c1.732,0.567,3.5,1.125,5.301,1.675c1.799,0.551,3.566,1.134,5.299,1.75
		c1.732,0.617,3.275,1.393,4.625,2.325c1.35,0.934,2.441,2.075,3.275,3.425c0.832,1.35,1.25,3.025,1.25,5.025
		s-0.359,3.883-1.074,5.65c-0.719,1.767-1.76,3.299-3.125,4.6c-1.367,1.3-3.043,2.334-5.025,3.1c-1.984,0.767-4.242,1.15-6.775,1.15
		c-1.768,0-3.35-0.143-4.75-0.426s-2.684-0.674-3.85-1.174c-1.168-0.5-2.268-1.117-3.301-1.851s-2.049-1.55-3.049-2.45l0.299-0.3
		c0.1-0.101,0.184-0.175,0.25-0.226c0.066-0.049,0.184-0.074,0.35-0.074c0.268,0,0.701,0.283,1.301,0.85
		c0.6,0.567,1.441,1.2,2.525,1.9c1.082,0.699,2.457,1.334,4.125,1.9c1.666,0.566,3.699,0.85,6.1,0.85s4.525-0.35,6.375-1.051
		c1.85-0.699,3.408-1.657,4.676-2.875c1.266-1.216,2.225-2.633,2.875-4.25c0.648-1.615,0.975-3.357,0.975-5.225
		c0-1.9-0.418-3.475-1.25-4.725c-0.834-1.25-1.926-2.309-3.275-3.176c-1.35-0.865-2.893-1.591-4.625-2.174
		c-1.734-0.584-3.5-1.143-5.301-1.676c-1.799-0.533-3.566-1.1-5.299-1.699c-1.734-0.601-3.275-1.342-4.625-2.226
		c-1.35-0.883-2.443-1.976-3.275-3.274c-0.834-1.301-1.25-2.917-1.25-4.851c0-1.633,0.367-3.191,1.1-4.675
		c0.732-1.482,1.768-2.8,3.1-3.95c1.334-1.15,2.926-2.066,4.775-2.75c1.85-0.683,3.893-1.025,6.125-1.025
		c2.768,0,5.201,0.375,7.301,1.125s4.133,1.975,6.1,3.675L196.858,117.849z"/>
</g>
<path style="fill:none;stroke:#003371;stroke-miterlimit:10;" d="M45.374,84.08c0,0-8.874-3.25-8.874,11.792v23.212
	c0,0,1.042,2.9-4.528,6"/>
<path style="fill:none;stroke:#003371;stroke-miterlimit:10;" d="M45.653,165.92c0,0-9.153,3.249-9.153-11.792v-23.213
	c0,0,1.182-2.9-4.389-6"/>
<path style="fill:none;stroke:#003371;stroke-miterlimit:10;" d="M204.584,84.08c0,0,7.916-3.25,7.916,11.792v23.212
	c0,0-0.563,2.9,5.007,6"/>
<path style="fill:none;stroke:#003371;stroke-miterlimit:10;" d="M204.305,165.92c0,0,8.195,3.249,8.195-11.792v-23.213
	c0,0-0.704-2.9,4.866-6"/>
</svg>
