<?xml version="1.0" standalone="no"?>
<!DOCTYPE svg PUBLIC "-//W3C//DTD SVG 1.1//EN" "http://www.w3.org/Graphics/SVG/1.1/DTD/svg11.dtd" >
<svg xmlns="http://www.w3.org/2000/svg" xmlns:xlink="http://www.w3.org/1999/xlink" version="1.1">
<metadata>
Created by FontForge 20170731 at Tue Jan  2 00:19:49 2018
 By ,,,
Typeface ?(your company). 2018. All Rights Reserved
</metadata>
<defs>
<font id="NenwchanSiteTitiliumLight" horiz-adv-x="1077" >
  <font-face 
    font-family="NenwchanSiteTitiliumLight"
    font-weight="400"
    font-stretch="normal"
    units-per-em="2048"
    panose-1="2 0 0 0 0 0 0 0 0 0"
    ascent="1638"
    descent="-410"
    x-height="1024"
    bbox="63 -489 1894 1495"
    underline-thickness="150"
    underline-position="-442"
    unicode-range="U+0020-0077"
  />
<missing-glyph horiz-adv-x="1536" 
d="M256 0v1280h1024v-1280h-1024zM288 32h960v1216h-960v-1216z" />
    <glyph glyph-name=".notdef" horiz-adv-x="1536" 
d="M256 0v1280h1024v-1280h-1024zM288 32h960v1216h-960v-1216z" />
    <glyph glyph-name=".null" horiz-adv-x="0" 
 />
    <glyph glyph-name="nonmarkingreturn" horiz-adv-x="569" 
 />
    <glyph glyph-name="space" unicode=" " horiz-adv-x="450" 
 />
    <glyph glyph-name="space" unicode="&#xa0;" horiz-adv-x="450" 
 />
    <glyph glyph-name="at" unicode="@" horiz-adv-x="2004" 
d="M1894 625v-35q0 -367 -72 -488q-25 -45 -48.5 -68.5t-62.5 -35.5q-61 -18 -134 -18t-116 13t-65 32q-45 43 -55 84q-84 -50 -201 -88.5t-178.5 -38.5t-98 5t-90 33.5t-86.5 80t-58.5 153.5t-25.5 244q0 278 94.5 411t335.5 133q109 0 228 -41l43 -14v37h71v-410
q0 -409 29 -483q10 -29 33.5 -54.5t53.5 -30.5t81 -5t81 6t66.5 35t55.5 86q43 131 43 422v37q0 411 -180.5 595.5t-611.5 184.5t-629.5 -196.5t-198.5 -675.5q0 -254 49 -424t156.5 -269.5t257 -141.5t370.5 -42l293 21l6 -68q-200 -18 -299 -18q-237 0 -399 44t-281 151
q-229 202 -229 727t221 741.5t686 216.5t665 -203t200 -645zM856 60.5q40 -13.5 98.5 -13.5t152.5 31t158 61l61 31q-22 233 -22 444v308q-150 55 -271 55q-206 0 -282 -118t-76 -367q0 -289 96 -377q45 -41 85 -54.5z" />
    <glyph glyph-name="D" unicode="D" horiz-adv-x="1329" 
d="M720 0h-532v1434h532q132 0 227 -57.5t149.5 -159t79 -221t24.5 -263t-25.5 -268.5t-79 -232.5t-149.5 -170t-226 -62.5zM1101.5 498.5q20.5 111.5 20.5 257t-34 279.5t-128 231.5t-240 97.5h-458v-1294h458q111 0 192 59t125 158.5t64.5 211z" />
    <glyph glyph-name="H" unicode="H" horiz-adv-x="1380" 
d="M1118 0v684h-856v-684h-74v1434h74v-680h856v680h74v-1434h-74z" />
    <glyph glyph-name="K" unicode="K" horiz-adv-x="1132" 
d="M262 674v-674h-74v1434h74v-691h264l450 691h89l-474 -721l506 -713h-94l-473 674h-268z" />
    <glyph glyph-name="S" unicode="S" horiz-adv-x="1105" 
d="M556 1386q-364 0 -364 -286q0 -129 43 -187q24 -30 51 -51.5t78 -38.5q84 -24 213 -45q223 -35 320.5 -107.5t97.5 -254.5q0 -232 -107.5 -331t-327.5 -99q-135 0 -362 24l-76 8l8 72q283 -35 447 -35q340 0 340 355q0 149 -78 206.5t-240.5 82t-231.5 44t-133.5 60.5
t-92 111.5t-27.5 181.5q0 360 442 360q142 0 340 -24l68 -9l-8 -71q-281 34 -400 34z" />
    <glyph glyph-name="a" unicode="a" horiz-adv-x="1013" 
d="M841 723v-590q9 -74 154 -86l-4 -63q-150 0 -211 86q-209 -88 -414 -88q-127 0 -197.5 75.5t-70.5 216t67.5 214t215.5 87.5l389 41v107q0 131 -56.5 190.5t-171.5 59.5q-116 0 -323 -27l-64 -8l-6 68q230 36 393 36q299 0 299 -319zM223 444.5q-49 -55.5 -49 -166
t50 -171t140 -60.5t190.5 21.5t157.5 42.5l58 20v420l-381 -39q-117 -12 -166 -67.5z" />
    <glyph glyph-name="c" unicode="c" horiz-adv-x="878" 
d="M542 977q-195 0 -269.5 -98.5t-74.5 -359.5t67.5 -366.5t276.5 -105.5l246 19l4 -66q-172 -18 -250 -18q-250 0 -335 117.5t-85 417.5t94 412.5t326 112.5l246 -20l-4 -66q-164 21 -242 21z" />
    <glyph glyph-name="d" unicode="d" horiz-adv-x="1054" 
d="M892 1495v-1495h-72v86q-59 -39 -165.5 -71.5t-173 -32.5t-102.5 5t-89 32.5t-87 79t-59.5 153.5t-25.5 244q0 278 95 412t337 134q117 0 270 -24v477h72zM373 60.5q40 -13.5 105.5 -13.5t154.5 26.5t138 53.5l49 27v798q-159 25 -270 25q-207 0 -281.5 -117t-74.5 -364
q0 -295 94 -381q45 -41 85 -54.5z" />
    <glyph glyph-name="e" unicode="e" horiz-adv-x="1028" 
d="M816 61l62 5l4 -66q-229 -18 -379 -18q-217 2 -301 132t-84 398q0 530 414 530q194 0 291.5 -116.5t97.5 -374.5v-68h-727q0 -221 69.5 -328.5t231.5 -107.5t321 14zM194 549h651q0 231 -74.5 329.5t-238.5 98.5q-338 0 -338 -428z" />
    <glyph glyph-name="g" unicode="g" horiz-adv-x="1026" 
d="M856.5 -414q-103.5 -75 -342 -75t-317.5 68.5t-79 257.5q0 116 78 186q28 26 96 75q-45 29 -45 133q0 29 47 127l14 33q-176 58 -176 311q0 342 351 342q106 0 188 -20l29 -6l286 6v-72h-221q82 -75 82 -254.5t-89 -255t-284 -75.5q-61 0 -110 8q-47 -117 -47 -147.5
t4 -47t16 -31t47 -18.5q64 -10 240 -10t256 -56.5t80 -230t-103.5 -248.5zM192 -161q0 -152 64.5 -207t262 -55t281.5 58t84 198.5t-61.5 181t-229.5 40.5l-248 6q-92 -63 -122.5 -107t-30.5 -115zM269.5 491.5q63.5 -59.5 218 -59.5t219 58.5t64.5 212t-64.5 215t-219 61.5
t-218 -62.5t-63.5 -214t63.5 -211z" />
    <glyph glyph-name="h" unicode="h" 
d="M233 0h-72v1495h72v-532q180 79 370.5 79t256 -103t65.5 -407v-532h-72v528q0 271 -49 360t-215 89q-82 0 -171 -20.5t-136 -41.5l-49 -20v-895z" />
    <glyph glyph-name="i" unicode="i" horiz-adv-x="395" 
d="M161 0v1024h72v-1024h-72zM161 1321v113h72v-113h-72z" />
    <glyph glyph-name="k" unicode="k" horiz-adv-x="931" 
d="M233 0h-72v1495h72v-903h196l353 432h86l-377 -463l393 -561h-86l-369 526h-196v-526z" />
    <glyph glyph-name="l" unicode="l" horiz-adv-x="419" 
d="M174 0v1495h72v-1495h-72z" />
    <glyph glyph-name="n" unicode="n" horiz-adv-x="1079" 
d="M233 0h-72v1024h72v-82q182 100 372.5 100t256 -103t65.5 -407v-532h-72v528q0 271 -49 360t-215 89q-82 0 -171 -25.5t-138 -50.5l-49 -27v-874z" />
    <glyph glyph-name="o" unicode="o" 
d="M537.5 1042q227.5 0 321.5 -114.5t94 -413.5t-83.5 -415.5t-331.5 -116.5t-332 116.5t-84 415.5t94 413.5t321.5 114.5zM537.5 47q114.5 0 181.5 23.5t102.5 88t46 145.5t10.5 226q0 258 -72 352.5t-268.5 94.5t-268 -94.5t-71.5 -352.5q0 -145 10 -226t46 -145.5
t102.5 -88t181 -23.5z" />
    <glyph glyph-name="p" unicode="p" horiz-adv-x="1056" 
d="M161 -471v1495h72v-86q59 39 165.5 71.5t188.5 32.5q184 0 267 -124.5t83 -401t-99 -405.5t-335 -129q-139 0 -270 28v-481h-72zM587 977q-78 0 -167 -27.5t-138 -54.5l-49 -27v-792q157 -29 270 -29q197 0 277.5 109.5t80.5 360.5t-68.5 355.5t-205.5 104.5z" />
    <glyph glyph-name="r" unicode="r" horiz-adv-x="671" 
d="M161 0v1024h72v-160q61 49 183 105.5t222 74.5v-73q-90 -19 -191.5 -62t-156.5 -78l-57 -34v-797h-72z" />
    <glyph glyph-name="v" unicode="v" horiz-adv-x="962" 
d="M63 1024h84l289 -958h90l297 958h76l-318 -1024h-201z" />
    <glyph glyph-name="w" unicode="w" horiz-adv-x="1548" 
d="M73 1024h76l260 -958h22l304 938h77l303 -938h23l260 958h76l-277 -1024h-139l-285 918l-284 -918h-140z" />
  </font>
</defs>
</svg>
